%FSTAX44Y44*%
%MOMM*%
%SFA1B1*%

%IPPOS*%
%ADD10C,1.499997*%
%ADD11C,0.250000*%
%ADD12C,0.399999*%
%ADD13C,0.100000*%
%ADD14C,0.180000*%
%ADD15C,0.200000*%
%ADD16C,0.150000*%
%ADD17C,0.499999*%
%ADD18C,0.253999*%
%LNpcb1-1*%
%LPD*%
G36*
X01345644Y-02152754D02*
X0134596D01*
Y-02153069*
Y-02153385*
X01346275*
Y-02153701*
Y-02154017*
Y-02154333*
Y-02154649*
Y-02154965*
X01346591*
Y-02155281*
Y-02155596*
Y-02155912*
Y-02156228*
Y-02156544*
Y-0215686*
X01346907*
Y-02157176*
Y-02157492*
Y-02157808*
Y-02158123*
Y-02158439*
X01347223*
Y-02158755*
Y-02159071*
Y-02159387*
Y-02159703*
Y-02160019*
X01347539*
Y-02160335*
Y-02160651*
Y-02160966*
Y-02161282*
Y-02161598*
Y-02161914*
X01347855*
Y-0216223*
Y-02162546*
Y-02162862*
Y-02163177*
Y-02163493*
X01348171*
Y-02163809*
Y-02164125*
Y-02164441*
Y-02164757*
Y-02165073*
Y-02165388*
X01348486*
Y-02165704*
Y-0216602*
Y-02166336*
Y-02166652*
Y-02166968*
X01348802*
Y-02167284*
Y-021676*
Y-02167915*
Y-02168231*
X01349118*
Y-02168547*
Y-02168863*
X01349434*
Y-02169179*
X01350382*
Y-02169495*
X01351013*
Y-02169811*
X01351961*
Y-02170127*
X01352593*
Y-02170442*
X01353225*
Y-02170758*
X01354172*
Y-02171074*
X01354804*
Y-0217139*
X01355752*
Y-02171706*
X01356383*
Y-02172022*
X01357331*
Y-02172338*
X01357963*
Y-02172654*
X0135891*
Y-0217297*
X01359542*
Y-02173285*
X01360805*
Y-0217297*
X01361437*
Y-02172654*
X01361753*
Y-02172338*
X01362385*
Y-02172022*
X01362701*
Y-02171706*
X01363017*
Y-0217139*
X01363648*
Y-02171074*
X01363964*
Y-02170758*
X01364596*
Y-02170442*
X01364912*
Y-02170127*
X01365543*
Y-02169811*
X01365859*
Y-02169495*
X01366491*
Y-02169179*
X01366807*
Y-02168863*
X01367439*
Y-02168547*
X01367755*
Y-02168231*
X01368386*
Y-02167915*
X01368702*
Y-021676*
X01369018*
Y-02167284*
X0136965*
Y-02166968*
X01369966*
Y-02166652*
X01370597*
Y-02166336*
X01370913*
Y-0216602*
X01371545*
Y-02165704*
X01371861*
Y-02165388*
X01372493*
Y-02165073*
X01372809*
Y-02164757*
X0137344*
Y-02164441*
X01374388*
Y-02164757*
X01374704*
Y-02165073*
X0137502*
Y-02165388*
X01375336*
Y-02165704*
X01375651*
Y-0216602*
X01375967*
Y-02166336*
X01376283*
Y-02166652*
X01376599*
Y-02166968*
X01376915*
Y-02167284*
X01377231*
Y-021676*
X01377547*
Y-02167915*
X01377862*
Y-02168231*
X01378178*
Y-02168547*
X01378494*
Y-02168863*
X0137881*
Y-02169179*
X01379126*
Y-02169495*
X01379442*
Y-02169811*
X01379758*
Y-02170127*
X01380074*
Y-02170442*
X01380389*
Y-02170758*
X01380705*
Y-02171074*
X01381021*
Y-0217139*
X01381337*
Y-02171706*
X01381653*
Y-02172022*
X01381969*
Y-02172338*
X01382285*
Y-02172654*
X01382601*
Y-0217297*
X01382916*
Y-02173285*
X01383232*
Y-02173601*
X01383548*
Y-02173917*
X01383864*
Y-02174233*
X0138418*
Y-02174549*
X01384496*
Y-02174865*
X01384812*
Y-0217518*
X01385128*
Y-02175496*
Y-02175812*
Y-02176128*
Y-02176444*
X01384812*
Y-0217676*
Y-02177076*
X01384496*
Y-02177392*
X0138418*
Y-02177707*
Y-02178023*
X01383864*
Y-02178339*
X01383548*
Y-02178655*
Y-02178971*
X01383232*
Y-02179287*
X01382916*
Y-02179603*
X01382601*
Y-02179919*
Y-02180234*
X01382285*
Y-0218055*
Y-02180866*
X01381969*
Y-02181182*
X01381653*
Y-02181498*
Y-02181814*
X01381337*
Y-0218213*
X01381021*
Y-02182445*
X01380705*
Y-02182761*
Y-02183077*
X01380389*
Y-02183393*
X01380074*
Y-02183709*
Y-02184025*
X01379758*
Y-02184341*
X01379442*
Y-02184657*
Y-02184972*
X01379126*
Y-02185289*
X0137881*
Y-02185604*
Y-0218592*
X01378494*
Y-02186236*
X01378178*
Y-02186552*
X01377862*
Y-02186868*
Y-02187184*
X01377547*
Y-02187499*
X01377231*
Y-02187815*
Y-02188131*
X01376915*
Y-02188447*
X01376599*
Y-02188763*
Y-02189079*
Y-02189395*
Y-02189711*
Y-02190026*
X01376915*
Y-02190342*
Y-02190658*
X01377231*
Y-02190974*
Y-0219129*
Y-02191606*
X01377547*
Y-02191922*
Y-02192238*
X01377862*
Y-02192553*
Y-02192869*
X01378178*
Y-02193185*
Y-02193501*
X01378494*
Y-02193817*
Y-02194133*
Y-02194449*
X0137881*
Y-02194764*
Y-0219508*
X01379126*
Y-02195396*
Y-02195712*
Y-02196028*
X01379442*
Y-02196344*
Y-0219666*
X01379758*
Y-02196976*
Y-02197291*
X01380074*
Y-02197608*
Y-02197923*
Y-02198239*
X01380389*
Y-02198555*
Y-02198871*
X01380705*
Y-02199187*
Y-02199503*
X01381021*
Y-02199818*
Y-02200134*
X01381337*
Y-0220045*
Y-02200766*
X01381969*
Y-02201082*
X01383864*
Y-02201398*
X01385443*
Y-02201714*
X01387339*
Y-0220203*
X01388918*
Y-02202345*
X01390497*
Y-02202661*
X01392393*
Y-02202977*
X01393972*
Y-02203293*
X01395551*
Y-02203609*
X01396815*
Y-02203925*
X01397131*
Y-02204241*
Y-02204557*
Y-02204872*
Y-02205188*
Y-02205504*
Y-0220582*
Y-02206136*
Y-02206452*
Y-02206768*
Y-02207084*
Y-02207399*
Y-02207715*
Y-02208031*
Y-02208347*
Y-02208663*
Y-02208979*
Y-02209295*
Y-02209611*
Y-02209927*
Y-02210242*
Y-02210558*
Y-02210874*
Y-0221119*
Y-02211506*
Y-02211822*
Y-02212138*
Y-02212453*
Y-02212769*
Y-02213085*
Y-02213401*
Y-02213717*
Y-02214033*
Y-02214349*
Y-02214664*
Y-0221498*
Y-02215296*
Y-02215612*
Y-02215928*
Y-02216244*
Y-0221656*
Y-02216876*
Y-02217191*
Y-02217507*
Y-02217823*
Y-02218139*
Y-02218455*
Y-02218771*
Y-02219087*
Y-02219403*
Y-02219718*
Y-02220034*
X01396499*
Y-0222035*
X0139492*
Y-02220666*
X0139334*
Y-02220982*
X01391445*
Y-02221298*
X0138955*
Y-02221614*
X0138797*
Y-0222193*
X01386391*
Y-02222246*
X01384812*
Y-02222561*
X01382916*
Y-02222877*
X01381969*
Y-02223193*
X01381653*
Y-02223509*
Y-02223825*
X01381337*
Y-02224141*
Y-02224457*
X01381021*
Y-02224772*
Y-02225088*
X01380705*
Y-02225404*
Y-0222572*
Y-02226036*
X01380389*
Y-02226352*
Y-02226668*
X01380074*
Y-02226983*
Y-02227299*
Y-02227615*
X01379758*
Y-02227931*
Y-02228247*
X01379442*
Y-02228563*
Y-02228879*
Y-02229195*
X01379126*
Y-0222951*
Y-02229826*
X0137881*
Y-02230142*
Y-02230458*
Y-02230774*
X01378494*
Y-0223109*
Y-02231406*
X01378178*
Y-02231722*
Y-02232037*
Y-02232353*
X01377862*
Y-02232669*
Y-02232985*
X01377547*
Y-02233301*
Y-02233617*
Y-02233933*
X01377231*
Y-02234249*
Y-02234565*
X01376915*
Y-0223488*
Y-02235196*
Y-02235512*
Y-02235828*
X01377231*
Y-02236144*
X01377547*
Y-0223646*
Y-02236775*
X01377862*
Y-02237091*
X01378178*
Y-02237407*
Y-02237723*
X01378494*
Y-02238039*
X0137881*
Y-02238355*
X01379126*
Y-02238671*
Y-02238987*
X01379442*
Y-02239302*
X01379758*
Y-02239618*
Y-02239934*
X01380074*
Y-0224025*
X01380389*
Y-02240566*
Y-02240882*
X01380705*
Y-02241198*
X01381021*
Y-02241514*
Y-02241829*
X01381337*
Y-02242145*
X01381653*
Y-02242461*
Y-02242777*
X01381969*
Y-02243093*
X01382285*
Y-02243409*
Y-02243725*
X01382601*
Y-0224404*
X01382916*
Y-02244356*
X01383232*
Y-02244672*
Y-02244988*
X01383548*
Y-02245304*
X01383864*
Y-0224562*
Y-02245936*
X0138418*
Y-02246252*
X01384496*
Y-02246567*
Y-02246884*
X01384812*
Y-02247199*
X01385128*
Y-02247515*
Y-02247831*
Y-02248147*
Y-02248463*
Y-02248779*
X01384812*
Y-02249094*
X01384496*
Y-0224941*
X0138418*
Y-02249726*
X01383864*
Y-02250042*
X01383548*
Y-02250358*
X01383232*
Y-02250674*
X01382916*
Y-0225099*
X01382601*
Y-02251306*
X01382285*
Y-02251621*
X01381969*
Y-02251937*
X01381653*
Y-02252253*
X01381337*
Y-02252569*
X01381021*
Y-02252885*
X01380705*
Y-02253201*
X01380389*
Y-02253517*
X01380074*
Y-02253833*
X01379758*
Y-02254148*
X01379442*
Y-02254464*
X01379126*
Y-0225478*
X0137881*
Y-02255096*
X01378494*
Y-02255412*
X01378178*
Y-02255728*
X01377862*
Y-02256044*
X01377547*
Y-02256359*
X01377231*
Y-02256675*
X01376915*
Y-02256991*
X01376599*
Y-02257307*
X01376283*
Y-02257623*
X01375967*
Y-02257939*
X01375651*
Y-02258255*
X01375336*
Y-02258571*
X0137502*
Y-02258886*
X01374704*
Y-02259203*
X01374072*
Y-02259518*
X01373756*
Y-02259203*
X01373124*
Y-02258886*
X01372493*
Y-02258571*
X01372177*
Y-02258255*
X01371545*
Y-02257939*
X01371229*
Y-02257623*
X01370913*
Y-02257307*
X01370282*
Y-02256991*
X01369966*
Y-02256675*
X01369334*
Y-02256359*
X01369018*
Y-02256044*
X01368386*
Y-02255728*
X0136807*
Y-02255412*
X01367439*
Y-02255096*
X01367123*
Y-0225478*
X01366491*
Y-02254464*
X01366175*
Y-02254148*
X01365543*
Y-02253833*
X01365228*
Y-02253517*
X01364912*
Y-02253201*
X0136428*
Y-02252885*
X01363964*
Y-02252569*
X01363332*
Y-02252253*
X01363017*
Y-02251937*
X01362385*
Y-02251621*
X01362069*
Y-02251306*
X0136049*
Y-02251621*
X01360174*
Y-02251937*
X01359542*
Y-02252253*
X0135891*
Y-02252569*
X01358279*
Y-02252885*
X01357647*
Y-02253201*
X01357015*
Y-02253517*
X01356383*
Y-02253833*
X01355752*
Y-02254148*
X0135512*
Y-02253833*
X01354804*
Y-02253517*
Y-02253201*
X01354488*
Y-02252885*
Y-02252569*
X01354172*
Y-02252253*
Y-02251937*
Y-02251621*
X01353856*
Y-02251306*
Y-0225099*
X0135354*
Y-02250674*
Y-02250358*
X01353225*
Y-02250042*
Y-02249726*
Y-0224941*
X01352909*
Y-02249094*
Y-02248779*
X01352593*
Y-02248463*
Y-02248147*
Y-02247831*
X01352277*
Y-02247515*
Y-02247199*
X01351961*
Y-02246884*
Y-02246567*
Y-02246252*
X01351645*
Y-02245936*
Y-0224562*
X01351329*
Y-02245304*
Y-02244988*
X01351013*
Y-02244672*
Y-02244356*
Y-0224404*
X01350698*
Y-02243725*
Y-02243409*
X01350382*
Y-02243093*
Y-02242777*
Y-02242461*
X01350066*
Y-02242145*
Y-02241829*
X0134975*
Y-02241514*
Y-02241198*
X01349434*
Y-02240882*
Y-02240566*
Y-0224025*
X01349118*
Y-02239934*
Y-02239618*
X01348802*
Y-02239302*
Y-02238987*
Y-02238671*
X01348486*
Y-02238355*
Y-02238039*
X01348171*
Y-02237723*
Y-02237407*
X01347855*
Y-02237091*
Y-02236775*
Y-0223646*
X01347539*
Y-02236144*
Y-02235828*
Y-02235512*
X01347223*
Y-02235196*
Y-0223488*
X01346907*
Y-02234565*
Y-02234249*
X01346591*
Y-02233933*
Y-02233617*
Y-02233301*
X01346275*
Y-02232985*
Y-02232669*
X0134596*
Y-02232353*
Y-02232037*
X01345644*
Y-02231722*
Y-02231406*
Y-0223109*
X01345328*
Y-02230774*
Y-02230458*
X01345012*
Y-02230142*
Y-02229826*
Y-0222951*
X01344696*
Y-02229195*
Y-02228879*
X0134438*
Y-02228563*
Y-02228247*
Y-02227931*
Y-02227615*
X01344696*
Y-02227299*
X01345012*
Y-02226983*
X01345644*
Y-02226668*
X0134596*
Y-02226352*
X01346591*
Y-02226036*
X01346907*
Y-0222572*
X01347223*
Y-02225404*
X01347855*
Y-02225088*
X01348171*
Y-02224772*
X01348486*
Y-02224457*
X01348802*
Y-02224141*
X01349118*
Y-02223825*
X01349434*
Y-02223509*
X0134975*
Y-02223193*
X01350066*
Y-02222877*
X01350382*
Y-02222561*
X01350698*
Y-02222246*
X01351013*
Y-0222193*
X01351329*
Y-02221614*
Y-02221298*
X01351645*
Y-02220982*
X01351961*
Y-02220666*
Y-0222035*
X01352277*
Y-02220034*
Y-02219718*
X01352593*
Y-02219403*
Y-02219087*
X01352909*
Y-02218771*
Y-02218455*
X01353225*
Y-02218139*
Y-02217823*
Y-02217507*
X0135354*
Y-02217191*
Y-02216876*
Y-0221656*
X01353856*
Y-02216244*
Y-02215928*
Y-02215612*
Y-02215296*
X01354172*
Y-0221498*
Y-02214664*
Y-02214349*
Y-02214033*
Y-02213717*
Y-02213401*
Y-02213085*
Y-02212769*
X01354488*
Y-02212453*
Y-02212138*
Y-02211822*
Y-02211506*
Y-0221119*
Y-02210874*
X01354172*
Y-02210558*
Y-02210242*
Y-02209927*
Y-02209611*
Y-02209295*
Y-02208979*
Y-02208663*
X01353856*
Y-02208347*
Y-02208031*
Y-02207715*
Y-02207399*
X0135354*
Y-02207084*
Y-02206768*
Y-02206452*
X01353225*
Y-02206136*
Y-0220582*
Y-02205504*
X01352909*
Y-02205188*
Y-02204872*
X01352593*
Y-02204557*
Y-02204241*
X01352277*
Y-02203925*
Y-02203609*
X01351961*
Y-02203293*
Y-02202977*
X01351645*
Y-02202661*
X01351329*
Y-02202345*
X01351013*
Y-0220203*
Y-02201714*
X01350698*
Y-02201398*
X01350382*
Y-02201082*
X01350066*
Y-02200766*
X0134975*
Y-0220045*
X01349434*
Y-02200134*
X01349118*
Y-02199818*
X01348802*
Y-02199503*
X01348486*
Y-02199187*
X01348171*
Y-02198871*
X01347855*
Y-02198555*
X01347223*
Y-02198239*
X01346907*
Y-02197923*
X01346275*
Y-02197608*
X01345644*
Y-02197291*
X01345012*
Y-02196976*
X0134438*
Y-0219666*
X01343748*
Y-02196344*
X01342801*
Y-02196028*
X01341537*
Y-02195712*
X01339958*
Y-02195396*
X01335536*
Y-02195712*
X01333956*
Y-02196028*
X01332693*
Y-02196344*
X01331745*
Y-0219666*
X01331114*
Y-02196976*
X01330482*
Y-02197291*
X0132985*
Y-02197608*
X01329218*
Y-02197923*
X01328586*
Y-02198239*
X01328271*
Y-02198555*
X01327955*
Y-02198871*
X01327323*
Y-02199187*
X01327007*
Y-02199503*
X01326691*
Y-02199818*
X01326375*
Y-02200134*
X0132606*
Y-0220045*
X01325744*
Y-02200766*
X01325428*
Y-02201082*
X01325112*
Y-02201398*
X01324796*
Y-02201714*
X0132448*
Y-0220203*
Y-02202345*
X01324164*
Y-02202661*
X01323848*
Y-02202977*
Y-02203293*
X01323533*
Y-02203609*
X01323217*
Y-02203925*
Y-02204241*
X01322901*
Y-02204557*
Y-02204872*
X01322585*
Y-02205188*
Y-02205504*
X01322269*
Y-0220582*
Y-02206136*
Y-02206452*
X01321953*
Y-02206768*
Y-02207084*
Y-02207399*
X01321637*
Y-02207715*
Y-02208031*
Y-02208347*
Y-02208663*
X01321321*
Y-02208979*
Y-02209295*
Y-02209611*
Y-02209927*
Y-02210242*
Y-02210558*
Y-02210874*
Y-0221119*
Y-02211506*
Y-02211822*
Y-02212138*
Y-02212453*
Y-02212769*
Y-02213085*
Y-02213401*
Y-02213717*
Y-02214033*
Y-02214349*
Y-02214664*
Y-0221498*
X01321637*
Y-02215296*
Y-02215612*
Y-02215928*
Y-02216244*
Y-0221656*
X01321953*
Y-02216876*
Y-02217191*
Y-02217507*
X01322269*
Y-02217823*
Y-02218139*
Y-02218455*
X01322585*
Y-02218771*
Y-02219087*
X01322901*
Y-02219403*
Y-02219718*
X01323217*
Y-02220034*
Y-0222035*
X01323533*
Y-02220666*
X01323848*
Y-02220982*
Y-02221298*
X01324164*
Y-02221614*
X0132448*
Y-0222193*
Y-02222246*
X01324796*
Y-02222561*
X01325112*
Y-02222877*
X01325428*
Y-02223193*
X01325744*
Y-02223509*
X0132606*
Y-02223825*
X01326375*
Y-02224141*
X01326691*
Y-02224457*
X01327007*
Y-02224772*
X01327323*
Y-02225088*
X01327955*
Y-02225404*
X01328271*
Y-0222572*
X01328586*
Y-02226036*
X01329218*
Y-02226352*
X01329534*
Y-02226668*
X0132985*
Y-02226983*
X01330482*
Y-02227299*
X01330798*
Y-02227615*
X01331114*
Y-02227931*
Y-02228247*
Y-02228563*
Y-02228879*
X01330798*
Y-02229195*
Y-0222951*
Y-02229826*
X01330482*
Y-02230142*
Y-02230458*
X01330166*
Y-02230774*
Y-0223109*
X0132985*
Y-02231406*
Y-02231722*
Y-02232037*
X01329534*
Y-02232353*
Y-02232669*
X01329218*
Y-02232985*
Y-02233301*
Y-02233617*
X01328902*
Y-02233933*
Y-02234249*
X01328586*
Y-02234565*
Y-0223488*
Y-02235196*
X01328271*
Y-02235512*
Y-02235828*
X01327955*
Y-02236144*
Y-0223646*
Y-02236775*
X01327639*
Y-02237091*
Y-02237407*
X01327323*
Y-02237723*
Y-02238039*
X01327007*
Y-02238355*
Y-02238671*
Y-02238987*
X01326691*
Y-02239302*
Y-02239618*
X01326375*
Y-02239934*
Y-0224025*
Y-02240566*
X0132606*
Y-02240882*
Y-02241198*
X01325744*
Y-02241514*
Y-02241829*
X01325428*
Y-02242145*
Y-02242461*
Y-02242777*
X01325112*
Y-02243093*
Y-02243409*
X01324796*
Y-02243725*
Y-0224404*
Y-02244356*
X0132448*
Y-02244672*
Y-02244988*
X01324164*
Y-02245304*
Y-0224562*
Y-02245936*
X01323848*
Y-02246252*
Y-02246567*
X01323533*
Y-02246884*
Y-02247199*
X01323217*
Y-02247515*
Y-02247831*
Y-02248147*
X01322901*
Y-02248463*
Y-02248779*
X01322585*
Y-02249094*
Y-0224941*
X01322269*
Y-02249726*
Y-02250042*
Y-02250358*
X01321953*
Y-02250674*
Y-0225099*
X01321637*
Y-02251306*
Y-02251621*
Y-02251937*
X01321321*
Y-02252253*
Y-02252569*
X01321006*
Y-02252885*
Y-02253201*
Y-02253517*
X0132069*
Y-02253833*
X01320374*
Y-02254148*
X01319742*
Y-02253833*
X0131911*
Y-02253517*
X01318479*
Y-02253201*
X01317847*
Y-02252885*
X01317215*
Y-02252569*
X01316583*
Y-02252253*
X01315952*
Y-02251937*
X01315636*
Y-02251621*
X01315004*
Y-02251306*
X01313425*
Y-02251621*
X01313109*
Y-02251937*
X01312793*
Y-02252253*
X01312161*
Y-02252569*
X01311845*
Y-02252885*
X01311214*
Y-02253201*
X01310898*
Y-02253517*
X01310266*
Y-02253833*
X0130995*
Y-02254148*
X01309318*
Y-02254464*
X01309002*
Y-0225478*
X01308371*
Y-02255096*
X01308055*
Y-02255412*
X01307423*
Y-02255728*
X01307107*
Y-02256044*
X01306475*
Y-02256359*
X0130616*
Y-02256675*
X01305528*
Y-02256991*
X01305212*
Y-02257307*
X01304896*
Y-02257623*
X01304264*
Y-02257939*
X01303948*
Y-02258255*
X01303317*
Y-02258571*
X01303001*
Y-02258886*
X01302369*
Y-02259203*
X01302053*
Y-02259518*
X01301422*
Y-02259203*
X0130079*
Y-02258886*
X01300474*
Y-02258571*
X01300158*
Y-02258255*
X01299842*
Y-02257939*
X01299526*
Y-02257623*
X0129921*
Y-02257307*
X01298895*
Y-02256991*
X01298579*
Y-02256675*
X01298263*
Y-02256359*
X01297947*
Y-02256044*
X01297631*
Y-02255728*
X01297315*
Y-02255412*
X01296999*
Y-02255096*
X01296684*
Y-0225478*
X01296368*
Y-02254464*
X01296052*
Y-02254148*
X01295736*
Y-02253833*
X0129542*
Y-02253517*
X01295104*
Y-02253201*
X01294788*
Y-02252885*
X01294472*
Y-02252569*
X01294157*
Y-02252253*
X01293841*
Y-02251937*
X01293525*
Y-02251621*
X01293209*
Y-02251306*
X01292893*
Y-0225099*
X01292577*
Y-02250674*
X01292261*
Y-02250358*
X01291945*
Y-02250042*
X0129163*
Y-02249726*
X01291314*
Y-0224941*
X01290998*
Y-02249094*
X01290682*
Y-02248779*
X01290366*
Y-02248463*
Y-02248147*
Y-02247831*
Y-02247515*
Y-02247199*
X01290682*
Y-02246884*
X01290998*
Y-02246567*
Y-02246252*
X01291314*
Y-02245936*
X0129163*
Y-0224562*
X01291945*
Y-02245304*
Y-02244988*
X01292261*
Y-02244672*
X01292577*
Y-02244356*
Y-0224404*
X01292893*
Y-02243725*
X01293209*
Y-02243409*
Y-02243093*
X01293525*
Y-02242777*
X01293841*
Y-02242461*
Y-02242145*
X01294157*
Y-02241829*
X01294472*
Y-02241514*
X01294788*
Y-02241198*
Y-02240882*
X01295104*
Y-02240566*
X0129542*
Y-0224025*
Y-02239934*
X01295736*
Y-02239618*
X01296052*
Y-02239302*
Y-02238987*
X01296368*
Y-02238671*
X01296684*
Y-02238355*
Y-02238039*
X01296999*
Y-02237723*
X01297315*
Y-02237407*
Y-02237091*
X01297631*
Y-02236775*
X01297947*
Y-0223646*
Y-02236144*
X01298263*
Y-02235828*
X01298579*
Y-02235512*
Y-02235196*
Y-0223488*
Y-02234565*
X01298263*
Y-02234249*
Y-02233933*
Y-02233617*
X01297947*
Y-02233301*
Y-02232985*
X01297631*
Y-02232669*
Y-02232353*
Y-02232037*
X01297315*
Y-02231722*
Y-02231406*
X01296999*
Y-0223109*
Y-02230774*
Y-02230458*
X01296684*
Y-02230142*
Y-02229826*
X01296368*
Y-0222951*
Y-02229195*
Y-02228879*
X01296052*
Y-02228563*
Y-02228247*
X01295736*
Y-02227931*
Y-02227615*
Y-02227299*
X0129542*
Y-02226983*
Y-02226668*
X01295104*
Y-02226352*
Y-02226036*
Y-0222572*
X01294788*
Y-02225404*
Y-02225088*
X01294472*
Y-02224772*
Y-02224457*
Y-02224141*
X01294157*
Y-02223825*
Y-02223509*
X01293841*
Y-02223193*
X01293525*
Y-02222877*
X01292577*
Y-02222561*
X01290998*
Y-02222246*
X01289103*
Y-0222193*
X01287523*
Y-02221614*
X01285944*
Y-02221298*
X01284049*
Y-02220982*
X01282153*
Y-02220666*
X01280574*
Y-0222035*
X01278995*
Y-02220034*
X01278679*
Y-02219718*
X01278363*
Y-02219403*
Y-02219087*
Y-02218771*
Y-02218455*
Y-02218139*
Y-02217823*
Y-02217507*
Y-02217191*
Y-02216876*
Y-0221656*
Y-02216244*
Y-02215928*
Y-02215612*
Y-02215296*
Y-0221498*
Y-02214664*
Y-02214349*
Y-02214033*
Y-02213717*
Y-02213401*
Y-02213085*
Y-02212769*
Y-02212453*
Y-02212138*
Y-02211822*
Y-02211506*
Y-0221119*
Y-02210874*
Y-02210558*
Y-02210242*
Y-02209927*
Y-02209611*
Y-02209295*
Y-02208979*
Y-02208663*
Y-02208347*
Y-02208031*
Y-02207715*
Y-02207399*
Y-02207084*
Y-02206768*
Y-02206452*
Y-02206136*
Y-0220582*
Y-02205504*
Y-02205188*
Y-02204872*
Y-02204557*
Y-02204241*
Y-02203925*
X01278679*
Y-02203609*
X01279942*
Y-02203293*
X01281522*
Y-02202977*
X01283101*
Y-02202661*
X01284996*
Y-02202345*
X01286576*
Y-0220203*
X01288471*
Y-02201714*
X0129005*
Y-02201398*
X0129163*
Y-02201082*
X01293525*
Y-02200766*
X01294157*
Y-0220045*
X01294472*
Y-02200134*
Y-02199818*
X01294788*
Y-02199503*
Y-02199187*
Y-02198871*
X01295104*
Y-02198555*
Y-02198239*
X0129542*
Y-02197923*
Y-02197608*
X01295736*
Y-02197291*
Y-02196976*
Y-0219666*
X01296052*
Y-02196344*
Y-02196028*
X01296368*
Y-02195712*
Y-02195396*
X01296684*
Y-0219508*
Y-02194764*
Y-02194449*
X01296999*
Y-02194133*
Y-02193817*
X01297315*
Y-02193501*
Y-02193185*
X01297631*
Y-02192869*
Y-02192553*
X01297947*
Y-02192238*
Y-02191922*
Y-02191606*
X01298263*
Y-0219129*
Y-02190974*
X01298579*
Y-02190658*
Y-02190342*
Y-02190026*
X01298895*
Y-02189711*
Y-02189395*
Y-02189079*
Y-02188763*
Y-02188447*
X01298579*
Y-02188131*
X01298263*
Y-02187815*
Y-02187499*
X01297947*
Y-02187184*
X01297631*
Y-02186868*
Y-02186552*
X01297315*
Y-02186236*
X01296999*
Y-0218592*
Y-02185604*
X01296684*
Y-02185289*
X01296368*
Y-02184972*
Y-02184657*
X01296052*
Y-02184341*
X01295736*
Y-02184025*
Y-02183709*
X0129542*
Y-02183393*
X01295104*
Y-02183077*
Y-02182761*
X01294788*
Y-02182445*
X01294472*
Y-0218213*
X01294157*
Y-02181814*
Y-02181498*
X01293841*
Y-02181182*
X01293525*
Y-02180866*
Y-0218055*
X01293209*
Y-02180234*
X01292893*
Y-02179919*
Y-02179603*
X01292577*
Y-02179287*
X01292261*
Y-02178971*
Y-02178655*
X01291945*
Y-02178339*
X0129163*
Y-02178023*
Y-02177707*
X01291314*
Y-02177392*
X01290998*
Y-02177076*
X01290682*
Y-0217676*
Y-02176444*
X01290366*
Y-02176128*
Y-02175812*
Y-02175496*
Y-0217518*
X01290682*
Y-02174865*
X01290998*
Y-02174549*
X01291314*
Y-02174233*
X0129163*
Y-02173917*
X01291945*
Y-02173601*
X01292261*
Y-02173285*
X01292577*
Y-0217297*
X01292893*
Y-02172654*
X01293209*
Y-02172338*
X01293525*
Y-02172022*
X01293841*
Y-02171706*
X01294157*
Y-0217139*
X01294472*
Y-02171074*
X01294788*
Y-02170758*
X01295104*
Y-02170442*
X0129542*
Y-02170127*
X01295736*
Y-02169811*
X01296052*
Y-02169495*
X01296368*
Y-02169179*
X01296684*
Y-02168863*
X01296999*
Y-02168547*
X01297315*
Y-02168231*
X01297631*
Y-02167915*
X01297947*
Y-021676*
X01298263*
Y-02167284*
X01298579*
Y-02166968*
X01298895*
Y-02166652*
X0129921*
Y-02166336*
X01299526*
Y-0216602*
X01299842*
Y-02165704*
X01300158*
Y-02165388*
X01300474*
Y-02165073*
X0130079*
Y-02164757*
X01301106*
Y-02164441*
X01302369*
Y-02164757*
X01302685*
Y-02165073*
X01303317*
Y-02165388*
X01303633*
Y-02165704*
X01303948*
Y-0216602*
X0130458*
Y-02166336*
X01304896*
Y-02166652*
X01305528*
Y-02166968*
X01305844*
Y-02167284*
X01306475*
Y-021676*
X01306791*
Y-02167915*
X01307423*
Y-02168231*
X01307739*
Y-02168547*
X01308371*
Y-02168863*
X01308687*
Y-02169179*
X01309002*
Y-02169495*
X01309634*
Y-02169811*
X0130995*
Y-02170127*
X01310582*
Y-02170442*
X01310898*
Y-02170758*
X01311529*
Y-02171074*
X01311845*
Y-0217139*
X01312477*
Y-02171706*
X01312793*
Y-02172022*
X01313425*
Y-02172338*
X01313741*
Y-02172654*
X01314056*
Y-0217297*
X01314688*
Y-02173285*
X01315952*
Y-0217297*
X01316899*
Y-02172654*
X01317531*
Y-02172338*
X01318163*
Y-02172022*
X0131911*
Y-02171706*
X01319742*
Y-0217139*
X0132069*
Y-02171074*
X01321321*
Y-02170758*
X01322269*
Y-02170442*
X01322901*
Y-02170127*
X01323848*
Y-02169811*
X0132448*
Y-02169495*
X01325428*
Y-02169179*
X0132606*
Y-02168863*
X01326375*
Y-02168547*
X01326691*
Y-02168231*
Y-02167915*
Y-021676*
Y-02167284*
X01327007*
Y-02166968*
Y-02166652*
Y-02166336*
Y-0216602*
Y-02165704*
X01327323*
Y-02165388*
Y-02165073*
Y-02164757*
Y-02164441*
Y-02164125*
Y-02163809*
X01327639*
Y-02163493*
Y-02163177*
Y-02162862*
Y-02162546*
Y-0216223*
X01327955*
Y-02161914*
Y-02161598*
Y-02161282*
Y-02160966*
Y-02160651*
X01328271*
Y-02160335*
Y-02160019*
Y-02159703*
Y-02159387*
Y-02159071*
Y-02158755*
X01328586*
Y-02158439*
Y-02158123*
Y-02157808*
Y-02157492*
Y-02157176*
X01328902*
Y-0215686*
Y-02156544*
Y-02156228*
Y-02155912*
Y-02155596*
X01329218*
Y-02155281*
Y-02154965*
Y-02154649*
Y-02154333*
Y-02154017*
Y-02153701*
X01329534*
Y-02153385*
Y-02153069*
Y-02152754*
X0132985*
Y-02152438*
X01345644*
Y-02152754*
G37*
G36*
X01008207Y03399488D02*
Y03399687D01*
X01008055Y03400055*
X01007774Y03400336*
X01007406Y03400488*
X01007207*
X01007008*
X01006641Y03400336*
X01006359Y03400055*
X01006207Y03399687*
Y03399488*
Y03399289*
X01006359Y03398922*
X01006641Y0339864*
X01007008Y03398488*
X01007207*
X01007406*
X01007774Y0339864*
X01008055Y03398922*
X01008207Y03399289*
Y03399488*
G37*
G36*
X01414108Y-00302237D02*
X01424653Y-00321716D01*
X01417183*
X01409275Y-00306435*
X01402977Y-00312001*
X01400927Y-00321716*
X01394385*
X01401024Y-00289642*
X01407615*
X01404783Y-0030336*
X01419624Y-00289642*
X0142846*
X01414108Y-00302237*
G37*
G36*
X01387892Y-00321716D02*
X01381936D01*
X01387453Y-00295158*
X0137559Y-00321716*
X01369341*
X01368169Y-00294963*
X01363092Y-00321716*
X01357136*
X01363824Y-00289642*
X01373198*
X01374223Y-00311659*
X01384231Y-00289642*
X01393701*
X01387892Y-00321716*
G37*
G36*
X01433049D02*
X01426508D01*
X01433147Y-00289642*
X01439738*
X01433049Y-00321716*
G37*
G36*
X01282158Y03546749D02*
X-0031784D01*
Y04246749*
X01282158*
Y03546749*
G37*
G36*
X00770068Y-02215389D02*
X00756692D01*
X00755228Y-02168523*
X00731892Y-02215389*
X00718321*
X0071588Y-02151241*
X00728768*
X00729353Y-02196154*
X00751517Y-02151241*
X00765675*
X00767139Y-02195666*
X00788229Y-02151241*
X0080102*
X00770068Y-02215389*
G37*
G36*
X01225353Y-02161981D02*
X01190984D01*
X01187762Y-02176529*
X01221154*
X01218909Y-02187269*
X01185419*
X01181709Y-02204649*
X01219006*
X0121676Y-02215389*
X01166672*
X01179951Y-02151241*
X01227598*
X01225353Y-02161981*
G37*
G36*
X01127617Y-02204649D02*
X01160326D01*
X0115808Y-02215389*
X01112288*
X01125567Y-02151241*
X01138748*
X01127617Y-02204649*
G37*
G36*
X01086414Y-02151339D02*
X01088074D01*
X01089734Y-02151436*
X01091198Y-02151534*
X01091882Y-02151631*
X01092468Y-02151729*
X01092663*
X01093249Y-02151827*
X01094128Y-02152022*
X01095202Y-02152315*
X01096471Y-02152705*
X01097838Y-02153096*
X01099205Y-02153682*
X01100474Y-02154365*
X01100669Y-02154463*
X0110106Y-02154756*
X01101646Y-02155146*
X01102329Y-02155732*
X0110311Y-02156513*
X01103989Y-02157392*
X0110477Y-02158466*
X01105454Y-02159638*
X01105551Y-02159735*
X01105747Y-02160223*
X01106039Y-02160907*
X01106332Y-02161786*
X01106625Y-0216286*
X01106918Y-02164031*
X01107113Y-02165398*
X01107211Y-02166863*
Y-02166961*
Y-02167058*
Y-02167351*
Y-02167742*
X01107016Y-02168718*
X01106821Y-02169987*
X0110643Y-02171452*
X01105942Y-02173014*
X01105161Y-02174576*
X01104184Y-02176138*
X01104087Y-02176334*
X01103598Y-02176822*
X01102915Y-02177505*
X01101939Y-02178384*
X01100669Y-02179263*
X01099107Y-02180337*
X01097252Y-02181216*
X01095104Y-02182094*
X01095202*
X01095299Y-02182192*
X01095885Y-02182387*
X01096764Y-0218268*
X01097935Y-02183168*
X01099107Y-02183852*
X01100376Y-0218473*
X01101646Y-02185707*
X0110272Y-02186976*
X01102817Y-02187172*
X01103208Y-02187562*
X01103598Y-02188245*
X01104184Y-02189222*
X01104672Y-02190393*
X01105161Y-02191663*
X01105454Y-02193225*
X01105551Y-02194787*
Y-02194885*
Y-0219508*
Y-02195373*
Y-02195764*
X01105454Y-02196252*
X01105356Y-02196838*
X01105161Y-02198302*
X0110477Y-02199962*
X01104184Y-02201817*
X01103306Y-0220377*
X01102233Y-02205723*
Y-0220582*
X01102036Y-02205918*
X01101646Y-02206601*
X01100865Y-0220748*
X01099888Y-02208554*
X01098521Y-02209823*
X01096959Y-02210995*
X01095202Y-02212167*
X01093151Y-02213143*
X01093054*
X01092858Y-02213241*
X01092565Y-02213338*
X01092077Y-02213534*
X01091491Y-02213631*
X01090808Y-02213827*
X01089929Y-02214022*
X01089051Y-02214217*
X01087977Y-0221451*
X01086805Y-02214705*
X01085535Y-02214901*
X01084072Y-02214998*
X01082606Y-02215194*
X01080946Y-02215291*
X01079287Y-02215389*
X01047262*
X0106054Y-02151241*
X0108495*
X01086414Y-02151339*
G37*
G36*
X01039255Y-02215389D02*
X01026758D01*
X0102461Y-02201231*
X00999224*
X00991511Y-02215389*
X00977841*
X01013968Y-02151241*
X01028906*
X01039255Y-02215389*
G37*
G36*
X0096261Y-02151339D02*
X0096427Y-02151436D01*
X00966125Y-02151631*
X0096798Y-02151924*
X00969835Y-02152315*
X00971495Y-02152803*
X0097169Y-02152901*
X00972178Y-02153096*
X00972959Y-02153487*
X00973838Y-02154072*
X00974912Y-02154756*
X00975986Y-02155732*
X00977158Y-02156904*
X00978134Y-02158368*
X00978232Y-02158564*
X00978525Y-02159052*
X00978916Y-02159931*
X00979403Y-02161102*
X00979892Y-02162469*
X00980282Y-02164129*
X00980575Y-02166082*
X00980673Y-02168132*
Y-0216823*
Y-02168523*
Y-02168913*
X00980575Y-02169499*
Y-02170183*
X0098038Y-02170964*
X00980087Y-02172819*
X00979501Y-02174967*
X00978622Y-02177212*
X00978036Y-02178384*
X00977451Y-02179458*
X0097667Y-02180532*
X00975791Y-02181606*
X00975693Y-02181704*
X00975596Y-02181801*
X00975303Y-02182094*
X00974912Y-02182485*
X00974326Y-02182876*
X00973741Y-02183364*
X00972959Y-02183852*
X00972081Y-02184438*
X00971104Y-02184926*
X0097003Y-02185512*
X00968761Y-02186097*
X00967492Y-02186586*
X00966027Y-02187074*
X00964465Y-02187464*
X00962805Y-02187855*
X0096095Y-02188148*
X00961048Y-02188245*
X0096134Y-02188538*
X00961829Y-02189124*
X00962512Y-02189808*
X00963196Y-02190687*
X00964074Y-02191663*
X00964855Y-02192835*
X00965734Y-02194201*
X00965832Y-02194299*
X00965929Y-02194592*
X00966222Y-02194983*
X00966515Y-02195568*
X00966906Y-02196349*
X00967394Y-02197326*
X0096798Y-021984*
X00968663Y-02199669*
X00969347Y-02201134*
X0097003Y-02202696*
X00970909Y-02204453*
X00971788Y-02206309*
X00972666Y-02208359*
X00973643Y-02210507*
X00974619Y-0221285*
X00975596Y-02215389*
X00961438*
Y-02215291*
X0096134Y-02215096*
X00961243Y-02214803*
X00961048Y-02214412*
X00960852Y-02213827*
X00960657Y-02213046*
X00960266Y-02212264*
X00959974Y-02211288*
X00959485Y-02210116*
X00958997Y-02208945*
X00958509Y-0220748*
X00957826Y-02206016*
X00957142Y-02204356*
X00956459Y-02202501*
X0095558Y-02200548*
X00954701Y-02198498*
Y-021984*
X00954603Y-02198205*
X00954408Y-02197912*
X00954213Y-02197521*
X00953725Y-02196447*
X00952944Y-0219508*
X00952065Y-02193713*
X00951088Y-02192346*
X00950014Y-02191077*
X0094894Y-02190101*
X00948843Y-02190003*
X0094855Y-02189905*
X00948062Y-0218971*
X00947378Y-02189417*
X009465Y-02189222*
X00945328Y-02189027*
X00943961Y-02188929*
X00942301Y-02188831*
X00936931*
X00931366Y-02215389*
X00918282*
X00931561Y-02151241*
X00961926*
X0096261Y-02151339*
G37*
G36*
X00909983Y-02215389D02*
X00897485D01*
X00895338Y-02201231*
X00869952*
X00862238Y-02215389*
X00848569*
X00884695Y-02151241*
X00899633*
X00909983Y-02215389*
G37*
G36*
X00852377Y-02161981D02*
X00818008D01*
X00814786Y-02176529*
X00848178*
X00845933Y-02187269*
X00812443*
X00808733Y-02204649*
X0084603*
X00843785Y-02215389*
X00793697*
X00806975Y-02151241*
X00854623*
X00852377Y-02161981*
G37*
G36*
X00912717Y-02292366D02*
X00899633D01*
X00905589Y-02263758*
X00880692*
X00874736Y-02292366*
X00861653*
X00874931Y-02228218*
X00888112*
X00882938Y-02253018*
X00907737*
X00912912Y-02228218*
X00926093*
X00912717Y-02292366*
G37*
G36*
X01209535Y-02228316D02*
X01211195Y-02228414D01*
X0121305Y-02228609*
X01214905Y-02228902*
X0121676Y-02229292*
X0121842Y-0222978*
X01218615Y-02229878*
X01219104Y-02230073*
X01219885Y-02230464*
X01220764Y-0223105*
X01221838Y-02231733*
X01222912Y-0223271*
X01224083Y-02233881*
X0122506Y-02235346*
X01225157Y-02235541*
X0122545Y-02236029*
X01225841Y-02236908*
X01226329Y-0223808*
X01226817Y-02239447*
X01227208Y-02241106*
X01227501Y-02243059*
X01227598Y-0224511*
Y-02245207*
Y-022455*
Y-02245891*
X01227501Y-02246477*
Y-0224716*
X01227305Y-02247941*
X01227012Y-02249796*
X01226427Y-02251944*
X01225548Y-0225419*
X01224962Y-02255362*
X01224376Y-02256436*
X01223595Y-0225751*
X01222716Y-02258584*
X01222619Y-02258681*
X01222521Y-02258779*
X01222228Y-02259072*
X01221838Y-02259462*
X01221252Y-02259853*
X01220666Y-02260341*
X01219885Y-02260829*
X01219006Y-02261415*
X0121803Y-02261903*
X01216956Y-02262489*
X01215686Y-02263075*
X01214417Y-02263563*
X01212953Y-02264051*
X0121139Y-02264442*
X01209731Y-02264832*
X01207875Y-02265125*
X01207973Y-02265223*
X01208266Y-02265516*
X01208754Y-02266102*
X01209438Y-02266785*
X01210121Y-02267664*
X01211Y-0226864*
X01211781Y-02269812*
X0121266Y-02271179*
X01212757Y-02271276*
X01212855Y-02271569*
X01213148Y-0227196*
X01213441Y-02272546*
X01213831Y-02273327*
X0121432Y-02274303*
X01214905Y-02275377*
X01215589Y-02276647*
X01216272Y-02278111*
X01216956Y-02279673*
X01217834Y-02281431*
X01218713Y-02283286*
X01219592Y-02285336*
X01220568Y-02287484*
X01221545Y-02289828*
X01222521Y-02292366*
X01208364*
Y-02292269*
X01208266Y-02292073*
X01208168Y-0229178*
X01207973Y-0229139*
X01207778Y-02290804*
X01207582Y-02290023*
X01207192Y-02289242*
X01206899Y-02288265*
X01206411Y-02287094*
X01205923Y-02285922*
X01205434Y-02284458*
X01204751Y-02282993*
X01204068Y-02281333*
X01203384Y-02279478*
X01202505Y-02277525*
X01201627Y-02275475*
Y-02275377*
X01201529Y-02275182*
X01201334Y-02274889*
X01201138Y-02274499*
X0120065Y-02273425*
X01199869Y-02272058*
X0119899Y-02270691*
X01198014Y-02269324*
X0119694Y-02268055*
X01195866Y-02267078*
X01195768Y-02266981*
X01195475Y-02266883*
X01194987Y-02266688*
X01194304Y-02266395*
X01193425Y-02266199*
X01192253Y-02266004*
X01190887Y-02265906*
X01189228Y-02265809*
X01183857*
X01178291Y-02292366*
X01165208*
X01178486Y-02228218*
X01208852*
X01209535Y-02228316*
G37*
G36*
X01163939Y-02238959D02*
X0112957D01*
X01126348Y-02253507*
X0115974*
X01157494Y-02264247*
X01124005*
X01120294Y-02281626*
X01157592*
X01155346Y-02292366*
X01105258*
X01118537Y-02228218*
X01166184*
X01163939Y-02238959*
G37*
G36*
X0110809D02*
X01089441D01*
X0107831Y-02292366*
X01065129*
X01076358Y-02238959*
X01057611*
X01059759Y-02228218*
X01110238*
X0110809Y-02238959*
G37*
G36*
X01042477Y-02292366D02*
X0102998D01*
X01027832Y-02278209*
X01002446*
X00994733Y-02292366*
X00981063*
X01017189Y-02228218*
X01032129*
X01042477Y-02292366*
G37*
G36*
X00984871Y-02238959D02*
X00950503D01*
X00947281Y-02253507*
X00980673*
X00978427Y-02264247*
X00944937*
X00941227Y-02281626*
X00978525*
X00976279Y-02292366*
X00926191*
X0093947Y-02228218*
X00987117*
X00984871Y-02238959*
G37*
%LNpcb1-2*%
%LPC*%
G36*
X00145835Y04021405D02*
X00138218D01*
X00134703Y04021112*
X0013148Y04020526*
X00128551Y04020233*
X001265Y04019647*
X00124742Y04019354*
X00123571Y04019061*
X00123277*
X00120348Y04018183*
X00117418Y04017011*
X00115074Y04015839*
X00113023Y0401496*
X00111559Y04014081*
X00110094Y04013202*
X00109508Y04012909*
X00109215Y04012616*
X00105113Y04009394*
X00101891Y04006171*
X00100719Y04004706*
X0009984Y04003534*
X00099254Y04002656*
X00098961Y04002363*
X00097203Y03999726*
X00095739Y03996796*
X00094274Y03993574*
X00092809Y03990644*
X00091637Y03987714*
X00090758Y03985664*
X00090172Y03984199*
X00089879Y03983613*
X00080797Y03959297*
X0003158Y0382512*
X00172788*
X00174839*
X00173418Y03828885*
X00174839Y03828127*
X00177182Y03826877*
X00181577Y0382512*
X00185971Y03823948*
X00189487Y03823069*
X00192709Y03822483*
X00195346Y0382219*
X00172788*
X00263314*
Y03964571*
X00219585*
X002264*
Y03921798*
Y03915352*
Y03909493*
X00226107Y0390422*
X00225814Y03899532*
Y03895138*
X00225521Y0389133*
X00225228Y03888107*
X00224936Y03885177*
X00224643Y03882833*
X0022435Y0388049*
X00224057Y03878732*
Y0387756*
X00223764Y03876388*
X00223471Y03875803*
Y03875217*
X00222299Y03871408*
X00220834Y03868185*
X00219369Y03865256*
X00217904Y03863205*
X00216733Y0386174*
X00215854Y03860568*
X00215268Y03859983*
X00214975Y0385969*
X00212924Y03858225*
X0021058Y03857053*
X00208237Y03856467*
X00206186Y03855881*
X00204428Y03855588*
X00202963Y03855295*
X00201791*
X00198569Y03855588*
X00195639Y03856174*
X00192709Y03857346*
X0018978Y03858225*
X00187729Y03859396*
X00185678Y03860568*
X00184507Y03861154*
X00184214Y03861447*
X00173032Y03829908*
X00172788Y03830554*
X00122105Y03964863*
X00123571Y03968965*
X00125035Y03972773*
X001265Y03975996*
X00127965Y03978926*
X00129429Y03981269*
X00130601Y03982734*
X00131187Y03983906*
X0013148Y03984199*
X00134117Y03986836*
X00137047Y03988886*
X00140269Y03990058*
X00143199Y0399123*
X00146128Y03991816*
X00148472Y03992109*
X00150523*
X00155796Y03991816*
X00158433Y03991523*
X00160776Y0399123*
X0016312Y03990937*
X00164585Y03990644*
X00165757Y03990351*
X0016605*
X00162827Y04019061*
X0015521Y04020526*
X00151695Y0402082*
X00148472Y04021112*
X00145835Y04021405*
G37*
G36*
X00694268Y03968086D02*
X00618093D01*
X00694268*
G37*
G36*
X00174839Y04021405D02*
D01*
Y03964571*
Y04021405*
G37*
G36*
X00748754Y03968086D02*
X00702466D01*
X00698072Y03967793*
X00693677Y039675*
X00689869Y03966621*
X00686646Y03965742*
X00683716Y03965156*
X00681373Y03964278*
X00680201Y03963985*
X00679615Y03963692*
X00675514Y03961641*
X00671998Y0395959*
X00668482Y03957246*
X00665553Y03954903*
X00662916Y03952852*
X00661158Y03951094*
X00659694Y03949922*
X00659401Y03949629*
X00659108Y03950801*
X00658815Y03952266*
X00658229Y03953438*
Y03953731*
Y03954024*
X0065735Y03956367*
X00656764Y03958711*
X00655885Y03960469*
X00655299Y03961934*
X00655006Y03963106*
X00654713Y03963985*
X0065442Y03964278*
Y03964571*
X00618093*
X0061985Y03960762*
X00621315Y03957539*
X00622487Y03954317*
X00623366Y0395168*
X00623952Y03949336*
X00624538Y03947579*
X00624831Y03946407*
Y03946114*
X00625417Y03942305*
X0062571Y03938204*
X00626296Y03933516*
Y03929122*
X00626589Y0392502*
Y03921798*
Y03920626*
Y03919747*
Y03919161*
Y03918868*
X00626003Y03876095*
Y03871701*
X00626296Y03867892*
X00626589Y03864084*
X00626882Y03860861*
X00627175Y03857639*
X00627467Y03855002*
X00628053Y03852658*
X00628346Y03850608*
X00629518Y03847092*
X00630104Y03844748*
X0063069Y03843284*
X00630983Y03842991*
X00633034Y03839768*
X00635671Y03836838*
X006386Y03834202*
X00641237Y03832151*
X00643874Y03830393*
X00645924Y03829221*
X00647389Y03828342*
X00647975Y0382805*
X00650319Y03826877*
X00652955Y03825998*
X00658815Y03824534*
X00664967Y03823655*
X00670826Y03822776*
X00676392Y03822483*
X00678736*
X00680787Y0382219*
X00668383*
X00689869*
X00694263Y03822483*
X00698658Y03823069*
X00702466Y03823655*
X00706275Y03824534*
X00709497Y03825413*
X0071272Y03826292*
X00715357Y03827171*
X007177Y0382805*
X00719751Y03828928*
X00721509Y03829807*
X00722974Y03830686*
X00724145Y03831272*
X00725024Y03831858*
X00725317Y03832151*
X0072561*
X00730298Y03836252*
X00734399Y0384094*
X00737915Y03845627*
X00740552Y03850608*
X00742309Y03855002*
X00743774Y03858518*
X0074436Y0385969*
X00744653Y03860861*
X00744946Y03861447*
Y0386174*
X00711841Y03867892*
X00710669Y0386467*
X00709204Y0386174*
X00707739Y03859397*
X00706275Y03857639*
X00705104Y03856174*
X00703931Y03855295*
X00703345Y03854709*
X00703052Y03854416*
X00700708Y03852951*
X00698365Y03852072*
X00693091Y038509*
X00691041Y03850608*
X00689283Y03850315*
X00687525*
X00682545Y03850608*
X0067815Y038509*
X00674635Y03851779*
X00671998Y03852658*
X00669947Y03853537*
X00668775Y03854123*
X00667896Y03854709*
X00667604Y03855002*
X00665846Y03857053*
X00664674Y03859397*
X00663502Y0386174*
X00662916Y03864377*
X00662623Y0386672*
X0066233Y03868478*
Y0386965*
Y03870236*
Y03873752*
X00664381Y03874631*
X00666725Y0387551*
X00672291Y03876974*
X0067815Y03878439*
X00684009Y03879904*
X00689576Y03881076*
X00691919Y03881662*
X00694263Y03881955*
X00696021Y03882248*
X00697193Y03882541*
X00698072Y03882833*
X00698365*
X00705104Y03884298*
X00710962Y03885763*
X00715943Y03887228*
X00720044Y03888693*
X00723267Y03889865*
X0072561Y03890744*
X00727075Y0389133*
X00727661Y03891623*
X00731177Y03893673*
X00734399Y03896017*
X00737036Y03898361*
X00739087Y03900704*
X00740844Y03902755*
X00742016Y03904513*
X00742895Y03905685*
X00743188Y03905978*
X00744946Y03909493*
X00746411Y03913009*
X0074729Y03916524*
X00748168Y03919747*
X00748462Y03922677*
X00748754Y03924727*
Y0382219*
Y03926778*
X00748168Y03933223*
X00746704Y03939083*
X00744946Y03944063*
X00742602Y03948457*
X00740258Y03951973*
X00738501Y0395461*
X00737036Y03956074*
X0073645Y0395666*
X0073147Y03960469*
X00725903Y03963399*
X00720337Y03965156*
X00714771Y03966621*
X00710083Y039675*
X00707739Y03967793*
X00705982*
X00704517Y03968086*
X00748754*
G37*
G36*
X00421807D02*
D01*
Y0389631*
X00421514Y03901583*
X00421221Y03906564*
X00419756Y03915938*
X00418585Y03920333*
X00417413Y03924141*
X00416241Y0392795*
X00415069Y03931172*
X00413897Y03934102*
X00412725Y03936739*
X00411553Y03939083*
X00410381Y0394084*
X00409503Y03942305*
X00408917Y03943477*
X00408331Y03944063*
Y03944356*
X00404815Y03948457*
X00401007Y03952266*
X00396905Y03955489*
X00392511Y03958125*
X00388116Y03960469*
X00383429Y03962227*
X00379034Y03963985*
X0037464Y03965156*
X00370538Y03966035*
X0036673Y03966914*
X00363507Y03967207*
X00360285Y03967793*
X00357941*
X0035589Y03968086*
X00354425*
X00346222Y039675*
X00338898Y03966328*
X00332453Y03964864*
X00326887Y03962813*
X00322492Y03960762*
X00320442Y03959883*
X00318977Y03959297*
X00317805Y03958418*
X00316926Y03958125*
X00316633Y03957539*
X0031634*
X00311067Y03953145*
X00306379Y03948164*
X00302571Y03943184*
X00299348Y03938204*
X00297005Y03933809*
X00295833Y03931759*
X00295247Y03930001*
X00294661Y03928829*
X00294075Y03927657*
X00293782Y03927071*
Y03926778*
X00330402Y03920626*
X00331574Y03924434*
X00333039Y03927364*
X00334797Y03930001*
X00336262Y03932051*
X00337434Y03933809*
X00338605Y03934981*
X00339191Y03935567*
X00339484Y0393586*
X00341828Y03937325*
X00344172Y03938497*
X00346808Y03939376*
X00348859Y03939961*
X0035091Y03940254*
X00352668Y03940547*
X00354132*
X00358527Y03940254*
X00362628Y03939083*
X00366437Y03937618*
X00369367Y0393586*
X00372003Y03934395*
X00373761Y0393293*
X00374933Y03931759*
X00375226Y03931465*
X00378156Y03927657*
X00380206Y03923556*
X00381671Y03919454*
X00382843Y03915059*
X00383429Y03911544*
X00383722Y03908321*
X00384015Y0390715*
Y03906271*
Y03905978*
Y03905685*
X00291731*
Y03898068*
X00292317Y03890744*
X00293196Y03884298*
X00294075Y03878146*
X0029554Y0387258*
X00297005Y03867306*
X00298469Y03862619*
X00300228Y03858518*
X00301692Y03854709*
X0030345Y03851779*
X00304915Y03849143*
X00306086Y03846799*
X00307258Y03845041*
X00308137Y0384387*
X00308723Y03843284*
X00309016Y03842991*
X00312532Y03839182*
X0031634Y03836252*
X00320149Y03833323*
X0032425Y03830979*
X00328352Y03828928*
X00332453Y03827171*
X00336555Y03825998*
X00340363Y03824827*
X00343879Y03823948*
X00347394Y03823362*
X00350324Y03822776*
X00352961Y03822483*
X00355304Y0382219*
X00291731*
X00421807*
Y03968086*
G37*
G36*
X00604909D02*
Y03854416D01*
X00587917*
Y03915645*
Y03919161*
Y03922384*
X00587625Y0392795*
Y03932638*
X00587331Y03936153*
X00587038Y03938497*
Y03940254*
X00586746Y03941426*
Y03941719*
X0058616Y03944942*
X00585574Y03947872*
X00584695Y03950215*
X00583816Y03952559*
X00582937Y03954024*
X00582351Y03955489*
X00582058Y03956074*
X00581765Y03956367*
X005803Y03958125*
X0057825Y03959883*
X00574441Y0396252*
X00572683Y03963692*
X00571218Y03964278*
X0057034Y03964571*
X00570047Y03964864*
X00567117Y03966035*
X00563894Y03966621*
X00560965Y03967207*
X00558035Y03967793*
X00555691*
X00553934Y03968086*
X00552176*
X00546317Y03967793*
X0054075Y03967207*
X0053577Y03966328*
X00531375Y03965449*
X0052786Y03964571*
X00525223Y03963692*
X00523465Y03963106*
X0052288Y03962813*
X00526102Y03934102*
X00529618Y03935274*
X00532547Y03936153*
X00535184Y03936739*
X00537235Y03937032*
X00538992Y03937325*
X00540164Y03937618*
X00541043*
X00543387Y03937325*
X00545438Y03936739*
X0054661Y03936153*
X00547196Y0393586*
X0054866Y03934395*
X00549832Y0393293*
X00550418Y03931759*
Y03931172*
Y03930586*
X00550711Y03929415*
Y03926778*
Y03923556*
X00551004Y0392004*
Y03916817*
Y03913888*
Y03912716*
Y03911837*
Y03911544*
Y03911251*
Y03854416*
X00525809*
Y0382512*
X00551004*
Y03775902*
X0052288*
X00604909*
Y03968086*
G37*
G36*
X00515555D02*
Y03854416D01*
X00498563*
Y03915645*
Y03919161*
Y03922384*
X00498271Y0392795*
Y03932638*
X00497978Y03936153*
X00497685Y03938497*
Y03940254*
X00497392Y03941426*
Y03941719*
X00496806Y03944942*
X0049622Y03947872*
X00495341Y03950215*
X00494462Y03952559*
X00493583Y03954024*
X00492997Y03955489*
X00492704Y03956074*
X00492411Y03956367*
X00490946Y03958125*
X00488896Y03959883*
X00485087Y0396252*
X00483329Y03963692*
X00481865Y03964277*
X00480986Y03964571*
X00480693Y03964864*
X00477763Y03966035*
X00474541Y03966621*
X00471611Y03967207*
X00468681Y03967793*
X00466338*
X0046458Y03968086*
X00462822*
X00456963Y03967793*
X00451396Y03967207*
X00446416Y03966328*
X00442022Y03965449*
X00438506Y03964571*
X00435869Y03963692*
X00434112Y03963106*
X00433526Y03962813*
X00436748Y03934102*
X00440264Y03935274*
X00443193Y03936153*
X0044583Y03936739*
X00447881Y03937032*
X00449639Y03937325*
X00450811Y03937618*
X00451689*
X00454033Y03937325*
X00456084Y03936739*
X00457256Y03936153*
X00457842Y0393586*
X00459306Y03934395*
X00460478Y0393293*
X00461064Y03931759*
Y03931172*
Y03930586*
X00461357Y03929415*
Y03926778*
Y03923556*
X0046165Y0392004*
Y03916817*
Y03913888*
Y03912716*
Y03911837*
Y03911544*
Y03911251*
Y03854416*
X00436455*
Y0382512*
X0046165*
Y03775902*
X00433526*
X00515555*
Y03968086*
G37*
G36*
X00932736Y03964571D02*
X00771606D01*
X00849241*
X00844261Y03964278*
X00836351*
X00832835Y03963985*
X00827562*
X00825511Y03963692*
X00822581*
X00821702Y03963399*
X0082053*
X00814964Y0396252*
X00809984Y03961348*
X00805589Y03959883*
X00801781Y03958125*
X00798558Y0395666*
X00796215Y03955489*
X00795043Y0395461*
X00794457Y03954317*
X00790648Y03951387*
X00787426Y03947872*
X00784496Y03944649*
X00782152Y03941426*
X00780395Y0393879*
X0077893Y03936446*
X00778051Y03934981*
X00777758Y03934395*
X00775707Y03929708*
X00774242Y03925313*
X0077307Y03920919*
X00772485Y0391711*
X00771899Y03913595*
X00771606Y03911251*
Y03908907*
X00771899Y03902755*
X0077307Y03897189*
X00774535Y03892501*
X00776293Y03888107*
X00778344Y03884591*
X00779809Y03881955*
X0078098Y0388049*
X00781273Y03879904*
X00785082Y0387551*
X00789476Y03871701*
X00793871Y03868771*
X00798265Y03866428*
X00802074Y0386467*
X00805296Y03863205*
X00806468Y03862912*
X00807347Y03862619*
X00807933Y03862326*
X00808226*
X00803832Y03859983*
X0079973Y03857346*
X00796507Y03854709*
X00793578Y03851779*
X00791234Y03849436*
X00789769Y03847385*
X00788597Y03846213*
X00788305Y03845627*
X00785961Y03841233*
X00784203Y03836838*
X00782738Y03832737*
X00781859Y03828928*
X00781273Y03825706*
X0078098Y03823069*
Y03821311*
Y03820725*
X00781273Y03816038*
X00781859Y03811936*
X00783031Y03808128*
X0078391Y03804612*
X00785082Y03801976*
X00786254Y03799925*
X0078684Y03798753*
X00787133Y03798167*
X00789476Y03794651*
X0079182Y03791429*
X00794457Y03788792*
X00796507Y03786449*
X00798558Y03784398*
X00800316Y03783226*
X00801488Y03782347*
X00801781Y03782054*
X00805296Y03780003*
X00808519Y03778245*
X00812035Y03776781*
X00815257Y03775902*
X00817894Y03775023*
X00819945Y03774437*
X00821409Y03774144*
X00821995*
X00826683Y03773558*
X00831956Y03772972*
X00837522Y03772679*
X00843089Y03772386*
X00848069Y03772093*
X00932736*
Y03964571*
G37*
G36*
X01085243Y-02161981D02*
X01071476D01*
X01068351Y-02177212*
X01079482*
X01080751Y-02177115*
X01082216*
X01083778Y-02177017*
X01085438Y-02176822*
X01086902Y-02176627*
X01088172Y-02176334*
X01088269Y-02176236*
X0108866Y-02176138*
X01089246Y-02175943*
X01089832Y-02175553*
X01090613Y-02175162*
X01091394Y-02174576*
X01092077Y-0217399*
X01092663Y-02173209*
X01092761Y-02173112*
X01092956Y-02172819*
X01093151Y-02172331*
X01093444Y-02171745*
X01093737Y-02171061*
X0109403Y-0217028*
X01094128Y-02169401*
X01094225Y-02168425*
Y-02168327*
Y-02168034*
X01094128Y-02167546*
X0109403Y-02166961*
X01093835Y-02166375*
X01093639Y-02165691*
X01093249Y-02165008*
X01092761Y-02164422*
X01092663Y-02164324*
X01092468Y-02164129*
X01092175Y-02163934*
X01091784Y-02163543*
X01091198Y-0216325*
X01090515Y-0216286*
X01089734Y-02162567*
X01088758Y-02162274*
X0108866*
X01088465Y-02162176*
X01087977*
X01087391Y-02162079*
X01086414*
X01085243Y-02161981*
G37*
G36*
X01081825Y-02188343D02*
X01066008D01*
X01062493Y-02205039*
X01077236*
X0107792Y-02204941*
X01079677*
X01081435Y-02204844*
X01083192Y-02204649*
X01084754Y-02204356*
X01085438Y-02204258*
X01086024Y-02204063*
X01086121Y-02203965*
X01086512Y-02203868*
X01087Y-02203672*
X01087586Y-02203282*
X01088269Y-02202793*
X01089051Y-02202208*
X01089734Y-02201524*
X01090417Y-02200743*
X01090515Y-02200646*
X0109071Y-02200353*
X01090906Y-02199864*
X01091296Y-02199181*
X01091589Y-02198497*
X01091784Y-02197619*
X0109198Y-0219674*
X01092077Y-02195764*
Y-02195666*
Y-02195178*
X0109198Y-02194592*
X01091784Y-02193908*
X01091491Y-0219303*
X01091003Y-02192151*
X01090417Y-02191272*
X01089636Y-02190491*
X01089539Y-02190393*
X01089148Y-02190198*
X01088562Y-02189808*
X01087781Y-02189417*
X01086707Y-02189027*
X0108534Y-02188636*
X01083778Y-02188441*
X01081825Y-02188343*
G37*
G36*
X0101924Y-02164715D02*
X01005082Y-02190491D01*
X01023047*
X0101924Y-02164715*
G37*
G36*
X00959192Y-02161981D02*
X00942496D01*
X00938981Y-02179165*
X0094855*
X00949526Y-02179068*
X00951772Y-0217897*
X00954115Y-02178872*
X00956459Y-02178677*
X00957533Y-02178579*
X00958509Y-02178384*
X00959388Y-02178189*
X00960169Y-02177994*
X00960364Y-02177896*
X00960755Y-02177701*
X0096134Y-02177408*
X00962219Y-02177017*
X00963098Y-02176431*
X00963977Y-02175748*
X00964855Y-02174967*
X00965637Y-0217399*
X00965734Y-02173893*
X00965929Y-02173502*
X0096632Y-02173014*
X00966711Y-02172233*
X00967003Y-02171452*
X00967394Y-02170476*
X00967589Y-02169401*
X00967687Y-02168328*
Y-02168132*
Y-02167742*
X00967492Y-02167156*
X00967296Y-02166375*
X00967003Y-02165496*
X00966418Y-02164617*
X00965734Y-02163738*
X00964758Y-02163055*
X0096466Y-02162957*
X00964367Y-0216286*
X00963879Y-02162665*
X00963196Y-02162469*
X00962122Y-02162274*
X00960852Y-02162176*
X00959192Y-02161981*
G37*
G36*
X00889967Y-02164715D02*
X0087581Y-02190491D01*
X00893775*
X00889967Y-02164715*
G37*
G36*
X01206119Y-02238959D02*
X01189422D01*
X01185907Y-02256143*
X01195475*
X01196452Y-02256045*
X01198698Y-02255947*
X01201041Y-0225585*
X01203384Y-02255655*
X01204458Y-02255557*
X01205434Y-02255362*
X01206313Y-02255166*
X01207094Y-02254971*
X0120729Y-02254873*
X0120768Y-02254678*
X01208266Y-02254385*
X01209145Y-02253996*
X01210023Y-02253409*
X01210902Y-02252726*
X01211781Y-02251944*
X01212562Y-02250968*
X0121266Y-0225087*
X01212855Y-0225048*
X01213246Y-02249992*
X01213636Y-0224921*
X01213929Y-02248429*
X0121432Y-02247453*
X01214515Y-02246379*
X01214612Y-02245305*
Y-0224511*
Y-02244719*
X01214417Y-02244133*
X01214222Y-02243352*
X01213929Y-02242473*
X01213343Y-02241595*
X0121266Y-02240716*
X01211683Y-02240033*
X01211586Y-02239935*
X01211293Y-02239837*
X01210805Y-02239642*
X01210121Y-02239447*
X01209047Y-02239251*
X01207778Y-02239154*
X01206119Y-02238959*
G37*
G36*
X01022462Y-02241692D02*
X01008304Y-02267469D01*
X0102627*
X01022462Y-02241692*
G37*
%LNpcb1-3*%
%LPD*%
G36*
X00135582Y0382512D02*
X00069665D01*
X00102477Y03924141*
X00135582Y0382512*
G37*
G36*
X00229037D02*
X00263314D01*
Y0382219*
X00197397*
X0020062Y03822483*
X00203549Y03822776*
X00206186Y03823655*
X0020853Y03824241*
X0021058Y0382512*
X00212045Y03825998*
X00212924Y03826292*
X00213217Y03826584*
X00215854Y03828635*
X00218783Y03831272*
X0022142Y03834202*
X00223764Y03837424*
X00225814Y03840354*
X00227572Y03842697*
X00228744Y03844455*
X00229037Y03844748*
Y0382512*
G37*
G36*
X00694849Y03941719D02*
X00697486Y03941133D01*
X00700123Y03940254*
X00702173Y03939083*
X00703931Y03938204*
X00705104Y03937325*
X00705982Y03936739*
X00706275Y03936446*
X00708033Y03934395*
X00709497Y03932052*
X00710376Y03929708*
X00711255Y03927657*
X00711548Y03925899*
X00711841Y03924141*
Y03923263*
Y0392297*
X00711548Y0392004*
X00710669Y03917696*
X00709497Y03915352*
X00708325Y03913595*
X00707154Y0391213*
X00705982Y03910958*
X00705104Y03910372*
X0070481Y03910079*
X00702466Y03908907*
X00699829Y03907736*
X00696314Y03906564*
X00693091Y03905685*
X00689869Y03904806*
X00687232Y0390422*
X00685474Y03903634*
X00684888*
X00679615Y03902462*
X00674928Y0390129*
X00671119Y03900411*
X00667896Y03899532*
X00665553Y03898653*
X00663795Y03898361*
X00662623Y03897775*
X0066233*
Y03905392*
Y03910079*
X00662623Y03913595*
X00662916Y03916818*
Y03919161*
X00663209Y03921212*
X00663502Y03922384*
X00663795Y0392297*
Y03923263*
X00664967Y03925899*
X00666139Y03928243*
X00667604Y03930294*
X00669068Y03932052*
X00670533Y03933516*
X00671412Y03934688*
X00672291Y03935274*
X00672584Y03935567*
X00676099Y03937618*
X00679323Y03939376*
X00682545Y03940547*
X00685474Y03941133*
X00688111Y03941719*
X00689869Y03942012*
X00691627*
X00694849Y03941719*
G37*
G36*
X00383136Y03877853D02*
X00382257Y03873166D01*
X00381085Y03869064*
X0037962Y03865549*
X00378156Y03862912*
X00376984Y03860861*
X00376105Y0385969*
X00375812Y03859397*
X00372589Y03856467*
X00369367Y03854123*
X00366144Y03852658*
X00362921Y03851486*
X00359992Y038509*
X00357941Y03850315*
X0035589*
X0035179Y03850608*
X0034798Y03851486*
X00344758Y03852951*
X00342121Y03854416*
X00339777Y03856174*
X00338312Y03857346*
X00337141Y03858518*
X00336848Y03858811*
X00334211Y03862326*
X0033216Y03866135*
X00330695Y03870236*
X00329523Y03874045*
X00328938Y0387756*
X00328645Y0388049*
X00328352Y03881662*
Y03882541*
Y03882833*
Y03883126*
X00383429*
X00383136Y03877853*
G37*
G36*
X00421807Y0382219D02*
X00358234D01*
X00363214Y03822483*
X00368195Y03823069*
X00372589Y03823948*
X00376984Y03825413*
X00381085Y03826877*
X00384894Y03828342*
X00388116Y03830393*
X00391339Y03832151*
X00394268Y03833909*
X00396612Y03835666*
X00398956Y03837424*
X00400714Y03838889*
X00402178Y03840354*
X00403057Y03841233*
X00403643Y03841818*
X00403936Y03842112*
X00407159Y0384592*
X00409796Y03850022*
X00412139Y03854416*
X0041419Y03858811*
X00415948Y03863498*
X00417413Y03867892*
X00419463Y03876681*
X00420342Y0388049*
X00420928Y03884298*
X00421221Y03887814*
X00421514Y03890451*
X00421807Y03893087*
Y0382219*
G37*
G36*
X00604909Y03775902D02*
X00551004D01*
X00587917Y03797581*
Y0382512*
X00604909*
Y03775902*
G37*
G36*
X00515555D02*
X0046165D01*
X00498563Y03797581*
Y0382512*
X00515555*
Y03775902*
G37*
G36*
X00893771Y0388049D02*
X00853635D01*
X00849534Y03880783*
X00846018Y03881076*
X00842796*
X00840159Y03881369*
X00837522Y03881662*
X00835472Y03881955*
X00833714Y03882248*
X00831956Y03882541*
X00829905Y03882833*
X0082844Y03883419*
X00828148*
X00825218Y03884591*
X00822874Y03885763*
X00820824Y03887228*
X00819066Y03888693*
X00817894Y03890158*
X00817015Y0389133*
X00816429Y03891916*
X00816136Y03892208*
X00814671Y03894552*
X00813499Y03897189*
X00812914Y03899532*
X00812328Y03901876*
X00812035Y03903927*
X00811742Y03905392*
Y03906564*
Y03906857*
X00812035Y03910372*
X00812621Y03913595*
X00813499Y03916524*
X00814378Y03918868*
X0081555Y03920626*
X00816429Y03922091*
X00817015Y0392297*
X00817308Y03923263*
X00819359Y03925313*
X00821702Y03927071*
X00824339Y03928243*
X0082639Y03929415*
X0082844Y03930001*
X00829905Y03930586*
X00831077Y0393088*
X0083137*
X00832542Y03931173*
X00834007*
X00837815Y03931465*
X0084221Y03931759*
X00846897*
X00850999Y03932052*
X00893771*
Y0388049*
G37*
G36*
Y03804026D02*
X00854807D01*
X00851878Y03804319*
X00844846*
X00843089Y03804612*
X00839866*
X00838694Y03804905*
X00838401*
X00834886Y03805491*
X00831956Y0380637*
X00829612Y03807542*
X00827562Y03808714*
X00825804Y03809885*
X00824632Y03810764*
X00824046Y03811351*
X00823753Y03811643*
X00821995Y03813987*
X00820824Y03816331*
X00819945Y03818675*
X00819359Y03821018*
X00819066Y03822776*
X00818773Y03824534*
Y03825706*
Y03825998*
X00819066Y03829221*
X00819652Y03832444*
X0082053Y03834788*
X00821702Y03837131*
X00822874Y03838889*
X00823753Y03840061*
X00824339Y0384094*
X00824632Y03841233*
X00826976Y03842991*
X00829319Y03844748*
X00831956Y0384592*
X00834593Y03846799*
X00836644Y03847385*
X00838401Y03847678*
X00839573Y03847971*
X00841331*
X00843089Y03848264*
X00851585*
X00856565Y03848557*
X00893771*
Y03804026*
G37*
G54D10*
X0142475Y-02210443D02*
D01*
X01424496Y-02204376*
X01423819Y-02198342*
X01422723Y-02192369*
X01421212Y-02186487*
X01419295Y-02180725*
X01416981Y-02175111*
X01414281Y-02169672*
X01411208Y-02164434*
X01407777Y-02159423*
X01404005Y-02154665*
X0139991Y-0215018*
X01395513Y-02145993*
X01390834Y-02142122*
X01385896Y-02138587*
X01380724Y-02135405*
X01375342Y-02132592*
X01369778Y-02130161*
X01364057Y-02128124*
X01358208Y-02126491*
X0135226Y-0212527*
X0134624Y-02124467*
X0134018Y-02124086*
X01334108Y-02124129*
X01328053Y-02124595*
X01322046Y-02125482*
X01316115Y-02126786*
X01310289Y-021285*
X01304598Y-02130617*
X01299068Y-02133126*
X01293726Y-02136014*
X01288599Y-02139268*
X01283711Y-02142872*
X01279087Y-02146808*
X01274748Y-02151057*
X01270717Y-02155598*
X01267011Y-02160409*
X01263651Y-02165467*
X01260652Y-02170747*
X01258028Y-02176223*
X01255793Y-0218187*
X01253957Y-02187658*
X01252529Y-0219356*
X01251516Y-02199548*
X01250924Y-02205591*
X01250754Y-02211661*
X01251009Y-02217729*
X01251686Y-02223763*
X01252782Y-02229736*
X01254292Y-02235618*
X01256209Y-0224138*
X01258524Y-02246994*
X01261224Y-02252433*
X01264297Y-02257671*
X01267727Y-02262681*
X01271499Y-0226744*
X01275594Y-02271924*
X01279992Y-02276112*
X01284671Y-02279983*
X01289609Y-02283517*
X01294781Y-02286699*
X01300162Y-02289513*
X01305727Y-02291944*
X01311448Y-02293981*
X01317297Y-02295613*
X01323245Y-02296834*
X01329264Y-02297638*
X01335325Y-02298019*
X01341397Y-02297976*
X01347452Y-0229751*
X01353459Y-02296623*
X0135939Y-02295319*
X01365215Y-02293604*
X01370907Y-02291487*
X01376437Y-02288979*
X01381779Y-0228609*
X01386906Y-02282836*
X01391794Y-02279233*
X01396418Y-02275297*
X01400757Y-02271048*
X01404788Y-02266507*
X01408493Y-02261696*
X01411854Y-02256638*
X01414853Y-02251358*
X01417477Y-02245881*
X01419712Y-02240235*
X01421548Y-02234447*
X01422976Y-02228545*
X01423989Y-02222557*
X01424581Y-02216513*
X01424752Y-02211052*
G54D11*
X00102526Y-00312813D02*
D01*
X00102523Y-00312726*
X00102514Y-00312639*
X00102499Y-00312553*
X00102478Y-00312469*
X00102451Y-00312386*
X00102418Y-00312305*
X0010238Y-00312226*
X00102336Y-00312151*
X00102288Y-00312079*
X00102234Y-0031201*
X00102176Y-00311945*
X00102113Y-00311884*
X00102046Y-00311828*
X00101975Y-00311777*
X00101901Y-00311731*
X00101824Y-0031169*
X00101745Y-00311654*
X00101663Y-00311624*
X00101579Y-00311601*
X00101493Y-00311582*
X00101407Y-0031157*
X0010132Y-00311564*
X00101233*
X00101146Y-0031157*
X00101059Y-00311582*
X00100974Y-00311601*
X0010089Y-00311624*
X00100808Y-00311654*
X00100729Y-0031169*
X00100651Y-00311731*
X00100577Y-00311777*
X00100507Y-00311828*
X0010044Y-00311884*
X00100377Y-00311945*
X00100319Y-0031201*
X00100265Y-00312079*
X00100216Y-00312151*
X00100173Y-00312226*
X00100134Y-00312305*
X00100102Y-00312386*
X00100075Y-00312469*
X00100054Y-00312553*
X00100038Y-00312639*
X0010003Y-00312726*
X00100026Y-00312813*
X0010003Y-00312901*
X00100038Y-00312987*
X00100054Y-00313073*
X00100075Y-00313158*
X00100102Y-00313241*
X00100134Y-00313322*
X00100173Y-003134*
X00100216Y-00313476*
X00100265Y-00313548*
X00100319Y-00313617*
X00100377Y-00313682*
X0010044Y-00313742*
X00100507Y-00313798*
X00100577Y-0031385*
X00100651Y-00313896*
X00100729Y-00313937*
X00100808Y-00313972*
X0010089Y-00314002*
X00100974Y-00314026*
X00101059Y-00314044*
X00101146Y-00314057*
X00101233Y-00314063*
X0010132*
X00101407Y-00314057*
X00101493Y-00314044*
X00101579Y-00314026*
X00101663Y-00314002*
X00101745Y-00313972*
X00101824Y-00313937*
X00101901Y-00313896*
X00101975Y-0031385*
X00102046Y-00313798*
X00102113Y-00313742*
X00102176Y-00313682*
X00102234Y-00313617*
X00102288Y-00313548*
X00102336Y-00313476*
X0010238Y-003134*
X00102418Y-00313322*
X00102451Y-00313241*
X00102478Y-00313158*
X00102499Y-00313073*
X00102514Y-00312987*
X00102523Y-00312901*
X00102526Y-00312813*
X00680398Y-00055709D02*
D01*
X00680395Y-00055622*
X00680386Y-00055535*
X00680371Y-00055449*
X0068035Y-00055365*
X00680323Y-00055282*
X0068029Y-00055201*
X00680252Y-00055123*
X00680208Y-00055047*
X0068016Y-00054975*
X00680106Y-00054906*
X00680048Y-00054841*
X00679985Y-0005478*
X00679918Y-00054724*
X00679847Y-00054673*
X00679773Y-00054627*
X00679696Y-00054586*
X00679617Y-0005455*
X00679535Y-00054521*
X00679451Y-00054496*
X00679365Y-00054478*
X00679279Y-00054466*
X00679192Y-0005446*
X00679105*
X00679018Y-00054466*
X00678931Y-00054478*
X00678846Y-00054496*
X00678762Y-00054521*
X0067868Y-0005455*
X006786Y-00054586*
X00678523Y-00054627*
X0067845Y-00054673*
X00678379Y-00054724*
X00678312Y-0005478*
X00678249Y-00054841*
X00678191Y-00054906*
X00678137Y-00054975*
X00678088Y-00055047*
X00678045Y-00055123*
X00678007Y-00055201*
X00677974Y-00055282*
X00677947Y-00055365*
X00677926Y-00055449*
X00677911Y-00055535*
X00677901Y-00055622*
X00677898Y-00055709*
X00677901Y-00055796*
X00677911Y-00055883*
X00677926Y-00055969*
X00677947Y-00056054*
X00677974Y-00056137*
X00678007Y-00056218*
X00678045Y-00056296*
X00678088Y-00056372*
X00678137Y-00056444*
X00678191Y-00056513*
X00678249Y-00056578*
X00678312Y-00056638*
X00678379Y-00056694*
X0067845Y-00056746*
X00678523Y-00056792*
X006786Y-00056833*
X0067868Y-00056868*
X00678762Y-00056898*
X00678846Y-00056922*
X00678931Y-0005694*
X00679018Y-00056953*
X00679105Y-00056958*
X00679192*
X00679279Y-00056953*
X00679365Y-0005694*
X00679451Y-00056922*
X00679535Y-00056898*
X00679617Y-00056868*
X00679696Y-00056833*
X00679773Y-00056792*
X00679847Y-00056746*
X00679918Y-00056694*
X00679985Y-00056638*
X00680048Y-00056578*
X00680106Y-00056513*
X0068016Y-00056444*
X00680208Y-00056372*
X00680252Y-00056296*
X0068029Y-00056218*
X00680323Y-00056137*
X0068035Y-00056054*
X00680371Y-00055969*
X00680386Y-00055883*
X00680395Y-00055796*
X00680398Y-00055709*
X00635668Y-00300379D02*
D01*
X00635665Y-00300292*
X00635656Y-00300205*
X00635641Y-0030012*
X0063562Y-00300035*
X00635593Y-00299952*
X0063556Y-00299871*
X00635522Y-00299793*
X00635479Y-00299717*
X0063543Y-00299645*
X00635376Y-00299576*
X00635318Y-00299511*
X00635255Y-00299451*
X00635188Y-00299394*
X00635117Y-00299343*
X00635043Y-00299297*
X00634966Y-00299256*
X00634887Y-0029922*
X00634805Y-00299191*
X00634721Y-00299167*
X00634636Y-00299148*
X00634549Y-00299136*
X00634462Y-0029913*
X00634375*
X00634288Y-00299136*
X00634201Y-00299148*
X00634116Y-00299167*
X00634032Y-00299191*
X0063395Y-0029922*
X0063387Y-00299256*
X00633793Y-00299297*
X00633719Y-00299343*
X00633649Y-00299394*
X00633582Y-00299451*
X00633519Y-00299511*
X00633461Y-00299576*
X00633407Y-00299645*
X00633358Y-00299717*
X00633315Y-00299793*
X00633276Y-00299871*
X00633244Y-00299952*
X00633217Y-00300035*
X00633196Y-0030012*
X00633181Y-00300205*
X00633171Y-00300292*
X00633168Y-00300379*
X00633171Y-00300467*
X00633181Y-00300553*
X00633196Y-00300639*
X00633217Y-00300724*
X00633244Y-00300807*
X00633276Y-00300888*
X00633315Y-00300966*
X00633358Y-00301042*
X00633407Y-00301114*
X00633461Y-00301183*
X00633519Y-00301248*
X00633582Y-00301308*
X00633649Y-00301364*
X00633719Y-00301416*
X00633793Y-00301462*
X0063387Y-00301503*
X0063395Y-00301538*
X00634032Y-00301568*
X00634116Y-00301592*
X00634201Y-0030161*
X00634288Y-00301622*
X00634375Y-00301629*
X00634462*
X00634549Y-00301622*
X00634636Y-0030161*
X00634721Y-00301592*
X00634805Y-00301568*
X00634887Y-00301538*
X00634966Y-00301503*
X00635043Y-00301462*
X00635117Y-00301416*
X00635188Y-00301364*
X00635255Y-00301308*
X00635318Y-00301248*
X00635376Y-00301183*
X0063543Y-00301114*
X00635479Y-00301042*
X00635522Y-00300966*
X0063556Y-00300888*
X00635593Y-00300807*
X0063562Y-00300724*
X00635641Y-00300639*
X00635656Y-00300553*
X00635665Y-00300467*
X00635668Y-00300379*
X00262288D02*
D01*
X00262285Y-00300292*
X00262276Y-00300205*
X00262261Y-0030012*
X0026224Y-00300035*
X00262213Y-00299952*
X0026218Y-00299871*
X00262142Y-00299793*
X00262099Y-00299717*
X0026205Y-00299645*
X00261996Y-00299576*
X00261938Y-00299511*
X00261875Y-00299451*
X00261808Y-00299394*
X00261737Y-00299343*
X00261663Y-00299297*
X00261586Y-00299256*
X00261507Y-0029922*
X00261425Y-00299191*
X00261341Y-00299167*
X00261256Y-00299148*
X00261169Y-00299136*
X00261082Y-0029913*
X00260995*
X00260908Y-00299136*
X00260821Y-00299148*
X00260736Y-00299167*
X00260652Y-00299191*
X0026057Y-0029922*
X0026049Y-00299256*
X00260413Y-00299297*
X00260339Y-00299343*
X00260269Y-00299394*
X00260202Y-00299451*
X00260139Y-00299511*
X00260081Y-00299576*
X00260027Y-00299645*
X00259978Y-00299717*
X00259935Y-00299793*
X00259896Y-00299871*
X00259864Y-00299952*
X00259837Y-00300035*
X00259816Y-0030012*
X00259801Y-00300205*
X00259791Y-00300292*
X00259788Y-00300379*
X00259791Y-00300467*
X00259801Y-00300553*
X00259816Y-00300639*
X00259837Y-00300724*
X00259864Y-00300807*
X00259896Y-00300888*
X00259935Y-00300966*
X00259978Y-00301042*
X00260027Y-00301114*
X00260081Y-00301183*
X00260139Y-00301248*
X00260202Y-00301308*
X00260269Y-00301364*
X00260339Y-00301416*
X00260413Y-00301462*
X0026049Y-00301503*
X0026057Y-00301538*
X00260652Y-00301568*
X00260736Y-00301592*
X00260821Y-0030161*
X00260908Y-00301622*
X00260995Y-00301629*
X00261082*
X00261169Y-00301622*
X00261256Y-0030161*
X00261341Y-00301592*
X00261425Y-00301568*
X00261507Y-00301538*
X00261586Y-00301503*
X00261663Y-00301462*
X00261737Y-00301416*
X00261808Y-00301364*
X00261875Y-00301308*
X00261938Y-00301248*
X00261996Y-00301183*
X0026205Y-00301114*
X00262099Y-00301042*
X00262142Y-00300966*
X0026218Y-00300888*
X00262213Y-00300807*
X0026224Y-00300724*
X00262261Y-00300639*
X00262276Y-00300553*
X00262285Y-00300467*
X00262288Y-00300379*
X00032528Y-00071659D02*
D01*
X00032525Y-00071572*
X00032516Y-00071486*
X00032501Y-00071399*
X0003248Y-00071315*
X00032453Y-00071232*
X0003242Y-00071151*
X00032382Y-00071073*
X00032339Y-00070997*
X0003229Y-00070925*
X00032236Y-00070856*
X00032177Y-00070791*
X00032115Y-0007073*
X00032048Y-00070674*
X00031977Y-00070623*
X00031903Y-00070577*
X00031826Y-00070536*
X00031747Y-00070501*
X00031665Y-00070471*
X00031581Y-00070446*
X00031496Y-00070428*
X00031409Y-00070416*
X00031322Y-0007041*
X00031235*
X00031148Y-00070416*
X00031061Y-00070428*
X00030976Y-00070446*
X00030892Y-00070471*
X0003081Y-00070501*
X0003073Y-00070536*
X00030653Y-00070577*
X00030579Y-00070623*
X00030509Y-00070674*
X00030442Y-0007073*
X00030379Y-00070791*
X00030321Y-00070856*
X00030267Y-00070925*
X00030218Y-00070997*
X00030175Y-00071073*
X00030136Y-00071151*
X00030104Y-00071232*
X00030077Y-00071315*
X00030056Y-00071399*
X00030041Y-00071486*
X00030031Y-00071572*
X00030028Y-00071659*
X00030031Y-00071747*
X00030041Y-00071833*
X00030056Y-00071919*
X00030077Y-00072004*
X00030104Y-00072087*
X00030136Y-00072168*
X00030175Y-00072246*
X00030218Y-00072322*
X00030267Y-00072394*
X00030321Y-00072463*
X00030379Y-00072528*
X00030442Y-00072588*
X00030509Y-00072644*
X00030579Y-00072696*
X00030653Y-00072742*
X0003073Y-00072783*
X0003081Y-00072818*
X00030892Y-00072848*
X00030976Y-00072872*
X00031061Y-0007289*
X00031148Y-00072903*
X00031235Y-00072909*
X00031322*
X00031409Y-00072903*
X00031496Y-0007289*
X00031581Y-00072872*
X00031665Y-00072848*
X00031747Y-00072818*
X00031826Y-00072783*
X00031903Y-00072742*
X00031977Y-00072696*
X00032048Y-00072644*
X00032115Y-00072588*
X00032177Y-00072528*
X00032236Y-00072463*
X0003229Y-00072394*
X00032339Y-00072322*
X00032382Y-00072246*
X0003242Y-00072168*
X00032453Y-00072087*
X0003248Y-00072004*
X00032501Y-00071919*
X00032516Y-00071833*
X00032525Y-00071747*
X00032528Y-00071659*
G54D12*
X00084776Y-00302313D02*
D01*
X00084771Y-00302174*
X00084757Y-00302035*
X00084733Y-00301898*
X00084699Y-00301762*
X00084656Y-00301629*
X00084603Y-003015*
X00084542Y-00301374*
X00084473Y-00301254*
X00084394Y-00301138*
X00084308Y-00301028*
X00084215Y-00300924*
X00084115Y-00300827*
X00084008Y-00300737*
X00083895Y-00300655*
X00083776Y-00300581*
X00083653Y-00300516*
X00083526Y-00300459*
X00083394Y-00300411*
X0008326Y-00300373*
X00083124Y-00300344*
X00082985Y-00300324*
X00082846Y-00300315*
X00082706*
X00082567Y-00300324*
X00082429Y-00300344*
X00082292Y-00300373*
X00082158Y-00300411*
X00082027Y-00300459*
X000819Y-00300516*
X00081776Y-00300581*
X00081658Y-00300655*
X00081545Y-00300737*
X00081438Y-00300827*
X00081338Y-00300924*
X00081244Y-00301028*
X00081158Y-00301138*
X0008108Y-00301254*
X00081011Y-00301374*
X00080949Y-003015*
X00080897Y-00301629*
X00080854Y-00301762*
X0008082Y-00301898*
X00080796Y-00302035*
X00080781Y-00302174*
X00080776Y-00302313*
X00080781Y-00302453*
X00080796Y-00302592*
X0008082Y-00302729*
X00080854Y-00302865*
X00080897Y-00302997*
X00080949Y-00303127*
X00081011Y-00303252*
X0008108Y-00303373*
X00081158Y-00303489*
X00081244Y-00303599*
X00081338Y-00303703*
X00081438Y-003038*
X00081545Y-00303889*
X00081658Y-00303971*
X00081776Y-00304045*
X000819Y-00304111*
X00082027Y-00304168*
X00082158Y-00304216*
X00082292Y-00304254*
X00082429Y-00304283*
X00082567Y-00304302*
X00082706Y-00304312*
X00082846*
X00082985Y-00304302*
X00083124Y-00304283*
X0008326Y-00304254*
X00083394Y-00304216*
X00083526Y-00304168*
X00083653Y-00304111*
X00083776Y-00304045*
X00083895Y-00303971*
X00084008Y-00303889*
X00084115Y-003038*
X00084215Y-00303703*
X00084308Y-00303599*
X00084394Y-00303489*
X00084473Y-00303373*
X00084542Y-00303252*
X00084603Y-00303127*
X00084656Y-00302997*
X00084699Y-00302865*
X00084733Y-00302729*
X00084757Y-00302592*
X00084771Y-00302453*
X00084776Y-00302313*
G54D13*
X00835878Y03414139D02*
D01*
X00835877Y03414174*
X00835874Y03414209*
X00835868Y03414243*
X00835859Y03414277*
X00835848Y0341431*
X00835835Y03414343*
X0083582Y03414374*
X00835803Y03414404*
X00835783Y03414433*
X00835761Y03414461*
X00835738Y03414487*
X00835713Y03414511*
X00835686Y03414533*
X00835658Y03414554*
X00835628Y03414572*
X00835598Y03414589*
X00835566Y03414603*
X00835533Y03414615*
X00835499Y03414625*
X00835465Y03414632*
X00835431Y03414637*
X00835396Y03414639*
X00835361*
X00835326Y03414637*
X00835291Y03414632*
X00835257Y03414625*
X00835224Y03414615*
X00835191Y03414603*
X00835159Y03414589*
X00835128Y03414572*
X00835099Y03414554*
X0083507Y03414533*
X00835044Y03414511*
X00835019Y03414487*
X00834995Y03414461*
X00834974Y03414433*
X00834954Y03414404*
X00834937Y03414374*
X00834922Y03414343*
X00834908Y0341431*
X00834898Y03414277*
X00834889Y03414243*
X00834883Y03414209*
X00834879Y03414174*
X00834878Y03414139*
X00834879Y03414104*
X00834883Y0341407*
X00834889Y03414035*
X00834898Y03414002*
X00834908Y03413968*
X00834922Y03413936*
X00834937Y03413905*
X00834954Y03413874*
X00834974Y03413846*
X00834995Y03413818*
X00835019Y03413792*
X00835044Y03413768*
X0083507Y03413745*
X00835099Y03413725*
X00835128Y03413706*
X00835159Y0341369*
X00835191Y03413676*
X00835224Y03413664*
X00835257Y03413654*
X00835291Y03413647*
X00835326Y03413642*
X00835361Y0341364*
X00835396*
X00835431Y03413642*
X00835465Y03413647*
X00835499Y03413654*
X00835533Y03413664*
X00835566Y03413676*
X00835598Y0341369*
X00835628Y03413706*
X00835658Y03413725*
X00835686Y03413745*
X00835713Y03413768*
X00835738Y03413792*
X00835761Y03413818*
X00835783Y03413846*
X00835803Y03413874*
X0083582Y03413905*
X00835835Y03413936*
X00835848Y03413968*
X00835859Y03414002*
X00835868Y03414035*
X00835874Y0341407*
X00835877Y03414104*
X00835878Y03414139*
G54D14*
X00319888Y03486883D02*
Y03495883D01*
X00301888Y03486883D02*
Y03495883D01*
Y03486883D02*
X00319888D01*
X00301888Y03495883D02*
X00319888D01*
Y03466563D02*
Y03475563D01*
X00301888Y03466563D02*
Y03475563D01*
Y03466563D02*
X00319888D01*
X00301888Y03475563D02*
X00319888D01*
X00185558Y03435613D02*
X00194558D01*
X00185558Y03417613D02*
X00194558D01*
Y03435613*
X00185558Y03417613D02*
Y03435613D01*
X00200798D02*
X00209798D01*
X00200798Y03417613D02*
X00209798D01*
Y03435613*
X00200798Y03417613D02*
Y03435613D01*
X00139804Y-00296154D02*
Y-00278154D01*
X00148804Y-00296154D02*
Y-00278154D01*
X00139804Y-00296154D02*
X00148804D01*
X00139804Y-00278154D02*
X00148804D01*
X00127104Y-00296154D02*
X00136104D01*
X00127104Y-00278154D02*
X00136104D01*
X00127104Y-00296154D02*
Y-00278154D01*
X00136104Y-00296154D02*
Y-00278154D01*
X00039474Y-00309813D02*
X00048474D01*
X00039474Y-00291813D02*
X00048474D01*
X00039474Y-00309813D02*
Y-00291813D01*
X00048474Y-00309813D02*
Y-00291813D01*
X00027664Y-00309813D02*
X00036664D01*
X00027664Y-00291813D02*
X00036664D01*
X00027664Y-00309813D02*
Y-00291813D01*
X00036664Y-00309813D02*
Y-00291813D01*
X-0000932Y-00132167D02*
Y-00103167D01*
X-0002332Y-00132167D02*
Y-00103167D01*
X-0000932*
X-0002332Y-00132167D02*
X-0000932D01*
X-00025669Y-00132168D02*
Y-00103168D01*
X-00039669Y-00132168D02*
Y-00103168D01*
X-00025669*
X-00039669Y-00132168D02*
X-00025669D01*
X00017448Y-00126959D02*
Y-00117959D01*
X-0000055Y-00126959D02*
Y-00117959D01*
Y-00126959D02*
X00017448D01*
X-0000055Y-00117959D02*
X00017448D01*
X-00000596Y-00113602D02*
Y-00104602D01*
X00017402Y-00113602D02*
Y-00104602D01*
X-00000596D02*
X00017402D01*
X-00000596Y-00113602D02*
X00017402D01*
X00017448Y-00089889D02*
Y-00080889D01*
X-0000055Y-00089889D02*
Y-00080889D01*
Y-00089889D02*
X00017448D01*
X-0000055Y-00080889D02*
X00017448D01*
Y-00101559D02*
Y-00092559D01*
X-0000055Y-00101559D02*
Y-00092559D01*
Y-00101559D02*
X00017448D01*
X-0000055Y-00092559D02*
X00017448D01*
X00162698Y03338059D02*
X00171698D01*
X00162698Y03320059D02*
X00171698D01*
Y03338059*
X00162698Y03320059D02*
Y03338059D01*
X00177938D02*
X00186938D01*
X00177938Y03320059D02*
X00186938D01*
Y03338059*
X00177938Y03320059D02*
Y03338059D01*
X00193178Y03320059D02*
X00202178D01*
X00193178Y03338059D02*
X00202178D01*
X00193178Y03320059D02*
Y03338059D01*
X00202178Y03320059D02*
Y03338059D01*
G54D15*
X00090776Y-00310313D02*
Y-00280313D01*
X00070776Y-00310313D02*
Y-00280313D01*
Y-00310313D02*
X00090776D01*
X00070776Y-00280313D02*
X00090776D01*
X00623398Y-00083459D02*
X00688898D01*
X00623398Y-00118959D02*
Y-00083459D01*
Y-00118959D02*
X00688898D01*
Y-00083459*
X00624668Y-00272629D02*
X00690168D01*
Y-00237129*
X00624668D02*
X00690168D01*
X00624668Y-00272629D02*
Y-00237129D01*
X00251288Y-00272629D02*
X00316788D01*
Y-00237129*
X00251288D02*
X00316788D01*
X00251288Y-00272629D02*
Y-00237129D01*
X-0001307Y-00118667D02*
Y-00116667D01*
X-0001957Y-00118667D02*
Y-00116667D01*
X-00029419Y-00118668D02*
Y-00116668D01*
X-00035919Y-00118668D02*
Y-00116668D01*
X00042028Y-00063409D02*
Y00003739D01*
Y-00252259D02*
Y-00245009D01*
X00197928Y-00252259D02*
X00223028D01*
X00042028D02*
X00067128D01*
X00223028Y-00063409D02*
Y00003739D01*
Y-00252259D02*
Y-00245009D01*
X00042028Y00003739D02*
X00223028D01*
X00257378Y03450103D02*
X00319578D01*
X00257378Y03382803D02*
Y03450103D01*
Y03382803D02*
X00319578D01*
Y03383703*
Y03449203D02*
Y03450103D01*
X00388198Y03360143D02*
X00404698D01*
X00368698Y03379643D02*
X00388198Y03360143D01*
X00454198D02*
X00473698Y03379643D01*
X00437698Y03360143D02*
X00454198D01*
X00368698Y03379643D02*
Y03465143D01*
X00404698*
X00437698D02*
X00473698D01*
Y03379643D02*
Y03465143D01*
X00083398Y03365223D02*
X00099898D01*
X00063898Y03384723D02*
X00083398Y03365223D01*
X00149398D02*
X00168898Y03384723D01*
X00132898Y03365223D02*
X00149398D01*
X00063898Y03384723D02*
Y03470223D01*
X00099898*
X00132898D02*
X00168898D01*
Y03384723D02*
Y03470223D01*
X00852378Y03395139D02*
Y03400139D01*
X00838378Y03395139D02*
Y03396139D01*
X00841878Y03382639D02*
X00848878D01*
X00841878Y03412639D02*
X00848878D01*
G54D16*
X-00032256Y-00196956D02*
X00012618D01*
X-0003238Y-0022886D02*
X00012493D01*
X-00032256Y-00152056D02*
X00012618D01*
X-0003238Y-0018396D02*
X00012493D01*
X00140338Y-00313366D02*
X00148337D01*
X00140338D02*
Y-00309938D01*
X00140719Y-00308796*
X001411Y-00308415*
X00141862Y-00308034*
X00142624*
X00143385Y-00308415*
X00143766Y-00308796*
X00144147Y-00309938*
Y-00313366*
Y-003107D02*
X00148337Y-00308034D01*
X00140338Y-00302435D02*
X00145671Y-00306244D01*
Y-00300531*
X00140338Y-00302435D02*
X00148337D01*
X00306769Y03510413D02*
X00306388Y03511175D01*
X00305626Y03511937*
X00304864Y03512318*
X00303341*
X00302579Y03511937*
X00301817Y03511175*
X00301436Y03510413*
X00301056Y03509271*
Y03507366*
X00301436Y03506224*
X00301817Y03505462*
X00302579Y035047*
X00303341Y03504319*
X00304864*
X00305626Y035047*
X00306388Y03505462*
X00306769Y03506224*
X00309016Y03510794D02*
X00309778Y03511175D01*
X0031092Y03512318*
Y03504319*
X00315262Y03510413D02*
Y03510794D01*
X00315643Y03511556*
X00316024Y03511937*
X00316786Y03512318*
X00318309*
X00319071Y03511937*
X00319452Y03511556*
X00319833Y03510794*
Y03510033*
X00319452Y03509271*
X0031869Y03508128*
X00314881Y03504319*
X00320213*
X00306769Y03490093D02*
X00306388Y03490855D01*
X00305626Y03491617*
X00304864Y03491998*
X00303341*
X00302579Y03491617*
X00301817Y03490855*
X00301436Y03490093*
X00301056Y03488951*
Y03487046*
X00301436Y03485904*
X00301817Y03485142*
X00302579Y0348438*
X00303341Y03484*
X00304864*
X00305626Y0348438*
X00306388Y03485142*
X00306769Y03485904*
X00309016Y03490474D02*
X00309778Y03490855D01*
X0031092Y03491998*
Y03484*
X00314881Y03490474D02*
X00315643Y03490855D01*
X00316786Y03491998*
Y03484*
X00221808Y03466598D02*
Y03460885D01*
X00222189Y03459742*
X0022295Y0345898*
X00224093Y03458599*
X00224855*
X00225997Y0345898*
X00226759Y03459742*
X0022714Y03460885*
Y03466598*
X00229349Y03465074D02*
X00230111Y03465455D01*
X00231253Y03466598*
Y03458599*
X00074401Y-00268659D02*
Y-00274372D01*
X00074782Y-00275515*
X00075544Y-00276277*
X00076686Y-00276658*
X00077448*
X0007859Y-00276277*
X00079352Y-00275515*
X00079733Y-00274372*
Y-00268659*
X00082704D02*
X00086894D01*
X00084608Y-00271706*
X00085751*
X00086513Y-00272087*
X00086894Y-00272468*
X00087274Y-00273611*
Y-00274372*
X00086894Y-00275515*
X00086132Y-00276277*
X00084989Y-00276658*
X00083847*
X00082704Y-00276277*
X00082323Y-00275896*
X00081942Y-00275134*
X00043921Y00017089D02*
Y00011376D01*
X00044302Y00010233*
X00045064Y00009471*
X00046206Y0000909*
X00046968*
X00048111Y00009471*
X00048872Y00010233*
X00049253Y00011376*
Y00017089*
X00051843Y00015184D02*
Y00015565D01*
X00052224Y00016327*
X00052605Y00016708*
X00053367Y00017089*
X0005489*
X00055652Y00016708*
X00056033Y00016327*
X00056413Y00015565*
Y00014803*
X00056033Y00014042*
X00055271Y00012899*
X00051462Y0000909*
X00056794*
X-00054204Y-00164392D02*
X-00054966Y-0016363D01*
X-00056108Y-00163249*
X-00057632*
X-00058774Y-0016363*
X-00059536Y-00164392*
Y-00165154*
X-00059155Y-00165916*
X-00058774Y-00166296*
X-00058013Y-00166677*
X-00055728Y-00167439*
X-00054966Y-0016782*
X-00054585Y-00168201*
X-00054204Y-00168963*
Y-00170105*
X-00054966Y-00170867*
X-00056108Y-00171248*
X-00057632*
X-00058774Y-00170867*
X-00059536Y-00170105*
X-00052414Y-00163249D02*
X-0005051Y-00171248D01*
X-00048605Y-00163249D02*
X-0005051Y-00171248D01*
X-00048605Y-00163249D02*
X-00046701Y-00171248D01*
X-00044796Y-00163249D02*
X-00046701Y-00171248D01*
X-00042816Y-00165154D02*
Y-00164773D01*
X-00042435Y-00164011*
X-00042054Y-0016363*
X-00041292Y-00163249*
X-00039769*
X-00039007Y-0016363*
X-00038626Y-00164011*
X-00038246Y-00164773*
Y-00165535*
X-00038626Y-00166296*
X-00039388Y-00167439*
X-00043197Y-00171248*
X-00037865*
X-0005249Y-00210112D02*
X-00053252Y-0020935D01*
X-00054394Y-00208969*
X-00055918*
X-00057061Y-0020935*
X-00057822Y-00210112*
Y-00210874*
X-00057441Y-00211636*
X-00057061Y-00212016*
X-00056299Y-00212397*
X-00054014Y-00213159*
X-00053252Y-0021354*
X-00052871Y-00213921*
X-0005249Y-00214682*
Y-00215825*
X-00053252Y-00216587*
X-00054394Y-00216968*
X-00055918*
X-00057061Y-00216587*
X-00057822Y-00215825*
X-000507Y-00208969D02*
X-00048796Y-00216968D01*
X-00046891Y-00208969D02*
X-00048796Y-00216968D01*
X-00046891Y-00208969D02*
X-00044987Y-00216968D01*
X-00043083Y-00208969D02*
X-00044987Y-00216968D01*
X-00041483Y-00210493D02*
X-00040721Y-00210112D01*
X-00039579Y-00208969*
Y-00216968*
X0022257Y-00266946D02*
Y-00274945D01*
Y-00266946D02*
X00225997D01*
X0022714Y-00267327*
X00227521Y-00267708*
X00227902Y-0026847*
Y-00269232*
X00227521Y-00269993*
X0022714Y-00270374*
X00225997Y-00270755*
X0022257*
X00225236D02*
X00227902Y-00274945D01*
X00230073Y-00268851D02*
Y-0026847D01*
X00230454Y-00267708*
X00230834Y-00267327*
X00231596Y-00266946*
X0023312*
X00233882Y-00267327*
X00234262Y-00267708*
X00234643Y-0026847*
Y-00269232*
X00234262Y-00269993*
X00233501Y-00271136*
X00229692Y-00274945*
X00235024*
X00237195Y-00268851D02*
Y-0026847D01*
X00237576Y-00267708*
X00237957Y-00267327*
X00238719Y-00266946*
X00240242*
X00241004Y-00267327*
X00241385Y-00267708*
X00241765Y-0026847*
Y-00269232*
X00241385Y-00269993*
X00240623Y-00271136*
X00236814Y-00274945*
X00242146*
X00594733Y-00271199D02*
Y-00279198D01*
Y-00271199D02*
X00598161D01*
X00599304Y-0027158*
X00599685Y-00271961*
X00600065Y-00272723*
Y-00273485*
X00599685Y-00274246*
X00599304Y-00274627*
X00598161Y-00275008*
X00594733*
X00597399D02*
X00600065Y-00279198D01*
X00602236Y-00273104D02*
Y-00272723D01*
X00602617Y-00271961*
X00602998Y-0027158*
X0060376Y-00271199*
X00605283*
X00606045Y-0027158*
X00606426Y-00271961*
X00606807Y-00272723*
Y-00273485*
X00606426Y-00274246*
X00605664Y-00275389*
X00601855Y-00279198*
X00607188*
X00608978Y-00272723D02*
X00609739Y-00272342D01*
X00610882Y-00271199*
Y-00279198*
X00711838Y-00084328D02*
X00719837D01*
X00711838D02*
Y-00080899D01*
X00712219Y-00079756*
X007126Y-00079376*
X00713362Y-00078995*
X00714124*
X00714885Y-00079376*
X00715266Y-00079756*
X00715647Y-00080899*
Y-00084328*
Y-00081661D02*
X00719837Y-00078995D01*
X00713743Y-00076824D02*
X00713362D01*
X007126Y-00076443*
X00712219Y-00076062*
X00711838Y-000753*
Y-00073777*
X00712219Y-00073015*
X007126Y-00072634*
X00713362Y-00072253*
X00714124*
X00714885Y-00072634*
X00716028Y-00073396*
X00719837Y-00077205*
Y-00071872*
X00711838Y-00067797D02*
X00712219Y-0006894D01*
X00713362Y-00069702*
X00715266Y-00070082*
X00716409*
X00718313Y-00069702*
X00719456Y-0006894*
X00719837Y-00067797*
Y-00067035*
X00719456Y-00065893*
X00718313Y-00065131*
X00716409Y-0006475*
X00715266*
X00713362Y-00065131*
X00712219Y-00065893*
X00711838Y-00067035*
Y-00067797*
X00926658Y03409702D02*
Y03401703D01*
Y03409702D02*
X00930085D01*
X00931228Y03409321*
X00931609Y0340894*
X0093199Y03408178*
Y03407417*
X00931609Y03406655*
X00931228Y03406274*
X00930085Y03405893*
X00926658*
X00929324D02*
X0093199Y03401703D01*
X0093378Y03408178D02*
X00934542Y03408559D01*
X00935684Y03409702*
Y03401703*
X00944597Y03407036D02*
X00944216Y03405893D01*
X00943454Y03405131*
X00942311Y0340475*
X00941931*
X00940788Y03405131*
X00940026Y03405893*
X00939645Y03407036*
Y03407417*
X00940026Y03408559*
X00940788Y03409321*
X00941931Y03409702*
X00942311*
X00943454Y03409321*
X00944216Y03408559*
X00944597Y03407036*
Y03405131*
X00944216Y03403227*
X00943454Y03402084*
X00942311Y03401703*
X0094155*
X00940407Y03402084*
X00940026Y03402846*
X00114938Y-00318649D02*
X00122937D01*
X00114938D02*
Y-00315221D01*
X00115319Y-00314078*
X001157Y-00313697*
X00116462Y-00313316*
X00117224*
X00117985Y-00313697*
X00118366Y-00314078*
X00118747Y-00315221*
Y-00318649*
Y-00315983D02*
X00122937Y-00313316D01*
X00116462Y-00311526D02*
X00116081Y-00310764D01*
X00114938Y-00309622*
X00122937*
X00114938Y-00303756D02*
X00115319Y-00304899D01*
X00116081Y-0030528*
X00116843*
X00117604Y-00304899*
X00117985Y-00304137*
X00118366Y-00302614*
X00118747Y-00301471*
X00119509Y-0030071*
X00120271Y-00300329*
X00121413*
X00122175Y-0030071*
X00122556Y-0030109*
X00122937Y-00302233*
Y-00303756*
X00122556Y-00304899*
X00122175Y-0030528*
X00121413Y-00305661*
X00120271*
X00119509Y-0030528*
X00118747Y-00304518*
X00118366Y-00303376*
X00117985Y-00301852*
X00117604Y-0030109*
X00116843Y-0030071*
X00116081*
X00115319Y-0030109*
X00114938Y-00302233*
Y-00303756*
X00023498Y-00190379D02*
X00031497D01*
X00023498D02*
Y-00186951D01*
X00023879Y-00185808*
X0002426Y-00185427*
X00025022Y-00185046*
X00025784*
X00026545Y-00185427*
X00026926Y-00185808*
X00027307Y-00186951*
Y-00190379*
Y-00187713D02*
X00031497Y-00185046D01*
X00025022Y-00183256D02*
X00024641Y-00182494D01*
X00023498Y-00181352*
X00031497*
X00023498Y-00172059D02*
X00031497Y-00175867D01*
X00023498Y-00177391D02*
Y-00172059D01*
Y-00238448D02*
X00031497D01*
X00023498D02*
Y-0023502D01*
X00023879Y-00233878*
X0002426Y-00233497*
X00025022Y-00233116*
X00025784*
X00026545Y-00233497*
X00026926Y-00233878*
X00027307Y-0023502*
Y-00238448*
Y-00235782D02*
X00031497Y-00233116D01*
X00025022Y-00231326D02*
X00024641Y-00230564D01*
X00023498Y-00229421*
X00031497*
X00024641Y-0022089D02*
X00023879Y-00221271D01*
X00023498Y-00222413*
Y-00223175*
X00023879Y-00224318*
X00025022Y-0022508*
X00026926Y-0022546*
X00028831*
X00030354Y-0022508*
X00031116Y-00224318*
X00031497Y-00223175*
Y-00222794*
X00031116Y-00221652*
X00030354Y-0022089*
X00029212Y-00220509*
X00028831*
X00027688Y-0022089*
X00026926Y-00221652*
X00026545Y-00222794*
Y-00223175*
X00026926Y-00224318*
X00027688Y-0022508*
X00028831Y-0022546*
X00262178Y-00163249D02*
Y-00171248D01*
Y-00163249D02*
X00265605D01*
X00266748Y-0016363*
X00267129Y-00164011*
X0026751Y-00164773*
Y-00165535*
X00267129Y-00166296*
X00266748Y-00166677*
X00265605Y-00167058*
X00262178*
X00264844D02*
X0026751Y-00171248D01*
X002693Y-00164773D02*
X00270062Y-00164392D01*
X00271204Y-00163249*
Y-00171248*
X00279736Y-00163249D02*
X00275927D01*
X00275546Y-00166677*
X00275927Y-00166296*
X0027707Y-00165916*
X00278212*
X00279355Y-00166296*
X00280117Y-00167058*
X00280498Y-00168201*
Y-00168963*
X00280117Y-00170105*
X00279355Y-00170867*
X00278212Y-00171248*
X0027707*
X00275927Y-00170867*
X00275546Y-00170486*
X00275165Y-00169724*
X00261987Y-00131499D02*
Y-00139498D01*
Y-00131499D02*
X00265415D01*
X00266558Y-0013188*
X00266939Y-00132261*
X00267319Y-00133023*
Y-00133785*
X00266939Y-00134546*
X00266558Y-00134927*
X00265415Y-00135308*
X00261987*
X00264653D02*
X00267319Y-00139498D01*
X0026911Y-00133023D02*
X00269871Y-00132642D01*
X00271014Y-00131499*
Y-00139498*
X00278784Y-00131499D02*
X00274975Y-00136832D01*
X00280688*
X00278784Y-00131499D02*
Y-00139498D01*
X00262008Y-00174324D02*
Y-00182323D01*
Y-00174324D02*
X00265436D01*
X00266578Y-00174705*
X00266959Y-00175086*
X0026734Y-00175848*
Y-0017661*
X00266959Y-00177371*
X00266578Y-00177752*
X00265436Y-00178133*
X00262008*
X00264674D02*
X0026734Y-00182323D01*
X0026913Y-00175848D02*
X00269892Y-00175467D01*
X00271035Y-00174324*
Y-00182323*
X00275757Y-00174324D02*
X00279947D01*
X00277662Y-00177371*
X00278805*
X00279566Y-00177752*
X00279947Y-00178133*
X00280328Y-00179276*
Y-00180037*
X00279947Y-0018118*
X00279185Y-00181942*
X00278043Y-00182323*
X002769*
X00275757Y-00181942*
X00275377Y-00181561*
X00274996Y-00180799*
X00281228Y-00054029D02*
Y-00062028D01*
Y-00054029D02*
X00284656D01*
X00285798Y-0005441*
X00286179Y-00054791*
X0028656Y-00055553*
Y-00056315*
X00286179Y-00057076*
X00285798Y-00057457*
X00284656Y-00057838*
X00281228*
X00283894D02*
X0028656Y-00062028D01*
X0028835Y-00055553D02*
X00289112Y-00055172D01*
X00290254Y-00054029*
Y-00062028*
X00294596Y-00055934D02*
Y-00055553D01*
X00294977Y-00054791*
X00295358Y-0005441*
X0029612Y-00054029*
X00297643*
X00298405Y-0005441*
X00298786Y-00054791*
X00299167Y-00055553*
Y-00056315*
X00298786Y-00057076*
X00298024Y-00058219*
X00294215Y-00062028*
X00299547*
X00263722Y-00153089D02*
Y-00161088D01*
Y-00153089D02*
X0026715D01*
X00268292Y-0015347*
X00268673Y-00153851*
X00269054Y-00154613*
Y-00155375*
X00268673Y-00156136*
X00268292Y-00156517*
X0026715Y-00156898*
X00263722*
X00266388D02*
X00269054Y-00161088D01*
X00270844Y-00154613D02*
X00271606Y-00154232D01*
X00272749Y-00153089*
Y-00161088*
X0027671Y-00154613D02*
X00277471Y-00154232D01*
X00278614Y-00153089*
Y-00161088*
X00127638Y-00318649D02*
X00135637D01*
X00127638D02*
Y-00315221D01*
X00128019Y-00314078*
X001284Y-00313697*
X00129162Y-00313316*
X00129924*
X00130685Y-00313697*
X00131066Y-00314078*
X00131447Y-00315221*
Y-00318649*
Y-00315983D02*
X00135637Y-00313316D01*
X00129162Y-00311526D02*
X00128781Y-00310764D01*
X00127638Y-00309622*
X00135637*
X00127638Y-00303376D02*
X00128019Y-00304518D01*
X00129162Y-0030528*
X00131066Y-00305661*
X00132209*
X00134113Y-0030528*
X00135256Y-00304518*
X00135637Y-00303376*
Y-00302614*
X00135256Y-00301471*
X00134113Y-0030071*
X00132209Y-00300329*
X00131066*
X00129162Y-0030071*
X00128019Y-00301471*
X00127638Y-00302614*
Y-00303376*
X00019885Y-0014175D02*
Y-00149748D01*
Y-0014175D02*
X00023313D01*
X00024456Y-00142131*
X00024837Y-00142512*
X00025218Y-00143273*
Y-00144035*
X00024837Y-00144797*
X00024456Y-00145178*
X00023313Y-00145559*
X00019885*
X00022551D02*
X00025218Y-00149748D01*
X00031959Y-00144416D02*
X00031578Y-00145559D01*
X00030816Y-0014632*
X00029674Y-00146701*
X00029293*
X0002815Y-0014632*
X00027389Y-00145559*
X00027008Y-00144416*
Y-00144035*
X00027389Y-00142892*
X0002815Y-00142131*
X00029293Y-0014175*
X00029674*
X00030816Y-00142131*
X00031578Y-00142892*
X00031959Y-00144416*
Y-0014632*
X00031578Y-00148225*
X00030816Y-00149367*
X00029674Y-00149748*
X00028912*
X00027769Y-00149367*
X00027389Y-00148606*
X0026511Y-00141576D02*
Y-00149574D01*
Y-00141576D02*
X00268538D01*
X00269681Y-00141957*
X00270062Y-00142338*
X00270443Y-001431*
Y-00143861*
X00270062Y-00144623*
X00269681Y-00145004*
X00268538Y-00145385*
X0026511*
X00267777D02*
X00270443Y-00149574D01*
X00274137Y-00141576D02*
X00272994Y-00141957D01*
X00272613Y-00142719*
Y-00143481*
X00272994Y-00144242*
X00273756Y-00144623*
X0027528Y-00145004*
X00276422Y-00145385*
X00277184Y-00146147*
X00277565Y-00146908*
Y-00148051*
X00277184Y-00148813*
X00276803Y-00149194*
X00275661Y-00149574*
X00274137*
X00272994Y-00149194*
X00272613Y-00148813*
X00272233Y-00148051*
Y-00146908*
X00272613Y-00146147*
X00273375Y-00145385*
X00274518Y-00145004*
X00276041Y-00144623*
X00276803Y-00144242*
X00277184Y-00143481*
Y-00142719*
X00276803Y-00141957*
X00275661Y-00141576*
X00274137*
X00019695Y-00130363D02*
Y-00138361D01*
Y-00130363D02*
X00023123D01*
X00024265Y-00130744*
X00024646Y-00131124*
X00025027Y-00131886*
Y-00132648*
X00024646Y-0013341*
X00024265Y-00133791*
X00023123Y-00134171*
X00019695*
X00022361D02*
X00025027Y-00138361D01*
X00032149Y-00130363D02*
X00028341Y-00138361D01*
X00026817Y-00130363D02*
X00032149D01*
X00265131Y-00197985D02*
Y-00205983D01*
Y-00197985D02*
X00268559D01*
X00269702Y-00198366*
X00270083Y-00198747*
X00270463Y-00199509*
Y-0020027*
X00270083Y-00201032*
X00269702Y-00201413*
X00268559Y-00201794*
X00265131*
X00267797D02*
X00270463Y-00205983D01*
X00276824Y-00199128D02*
X00276443Y-00198366D01*
X002753Y-00197985*
X00274539*
X00273396Y-00198366*
X00272634Y-00199509*
X00272254Y-00201413*
Y-00203317*
X00272634Y-00204841*
X00273396Y-00205603*
X00274539Y-00205983*
X0027492*
X00276062Y-00205603*
X00276824Y-00204841*
X00277205Y-00203698*
Y-00203317*
X00276824Y-00202175*
X00276062Y-00201413*
X0027492Y-00201032*
X00274539*
X00273396Y-00201413*
X00272634Y-00202175*
X00272254Y-00203317*
X00264941Y-00186109D02*
Y-00194108D01*
Y-00186109D02*
X00268369D01*
X00269511Y-0018649*
X00269892Y-00186871*
X00270273Y-00187633*
Y-00188395*
X00269892Y-00189156*
X00269511Y-00189537*
X00268369Y-00189918*
X00264941*
X00267607D02*
X00270273Y-00194108D01*
X00276634Y-00186109D02*
X00272825D01*
X00272444Y-00189537*
X00272825Y-00189156*
X00273967Y-00188776*
X0027511*
X00276253Y-00189156*
X00277014Y-00189918*
X00277395Y-00191061*
Y-00191823*
X00277014Y-00192965*
X00276253Y-00193727*
X0027511Y-00194108*
X00273967*
X00272825Y-00193727*
X00272444Y-00193346*
X00272063Y-00192584*
X00178628Y03353568D02*
Y03345569D01*
Y03353568D02*
X00182055D01*
X00183198Y03353187*
X00183579Y03352806*
X0018396Y03352044*
Y03351283*
X00183579Y03350521*
X00183198Y0335014*
X00182055Y03349759*
X00178628*
X00181294D02*
X0018396Y03345569D01*
X00186512Y03353568D02*
X00190701D01*
X00188416Y03350521*
X00189559*
X0019032Y0335014*
X00190701Y03349759*
X00191082Y03348616*
Y03347855*
X00190701Y03346712*
X00189939Y0334595*
X00188797Y03345569*
X00187654*
X00186512Y0334595*
X00186131Y03346331*
X0018575Y03347093*
X0002127Y-00104829D02*
Y-00112828D01*
Y-00104829D02*
X00024698D01*
X00025841Y-0010521*
X00026222Y-00105591*
X00026603Y-00106353*
Y-00107115*
X00026222Y-00107876*
X00025841Y-00108257*
X00024698Y-00108638*
X0002127*
X00023936D02*
X00026603Y-00112828D01*
X00028773Y-00106734D02*
Y-00106353D01*
X00029154Y-00105591*
X00029535Y-0010521*
X00030297Y-00104829*
X0003182*
X00032582Y-0010521*
X00032963Y-00105591*
X00033344Y-00106353*
Y-00107115*
X00032963Y-00107876*
X00032201Y-00109019*
X00028393Y-00112828*
X00033725*
X00163388Y03353568D02*
Y03345569D01*
Y03353568D02*
X00166815D01*
X00167958Y03353187*
X00168339Y03352806*
X0016872Y03352044*
Y03351283*
X00168339Y03350521*
X00167958Y0335014*
X00166815Y03349759*
X00163388*
X00166054D02*
X0016872Y03345569D01*
X0017051Y03352044D02*
X00171272Y03352425D01*
X00172414Y03353568*
Y03345569*
X00962725Y03415798D02*
X00961963Y03415417D01*
X00961201Y03414655*
X00960821Y03413893*
X0096044Y03412751*
Y03410846*
X00960821Y03409704*
X00961201Y03408942*
X00961963Y0340818*
X00962725Y03407799*
X00964248*
X0096501Y0340818*
X00965772Y03408942*
X00966153Y03409704*
X00966534Y03410846*
Y03412751*
X00966153Y03413893*
X00965772Y03414655*
X0096501Y03415417*
X00964248Y03415798*
X00962725*
X00963867Y03409323D02*
X00966153Y03407038D01*
X00972208Y03415798D02*
X009684Y03410466D01*
X00974113*
X00972208Y03415798D02*
Y03407799D01*
X00306421Y-00218499D02*
X00305659Y-00218879D01*
X00304897Y-00219641*
X00304516Y-00220403*
X00304136Y-00221545*
Y-0022345*
X00304516Y-00224593*
X00304897Y-00225354*
X00305659Y-00226116*
X00306421Y-00226497*
X00307944*
X00308706Y-00226116*
X00309468Y-00225354*
X00309849Y-00224593*
X0031023Y-0022345*
Y-00221545*
X00309849Y-00220403*
X00309468Y-00219641*
X00308706Y-00218879*
X00307944Y-00218499*
X00306421*
X00307563Y-00224973D02*
X00309849Y-00227259D01*
X00312858Y-00218499D02*
X00317047D01*
X00314762Y-00221545*
X00315904*
X00316666Y-00221926*
X00317047Y-00222307*
X00317428Y-0022345*
Y-00224212*
X00317047Y-00225354*
X00316285Y-00226116*
X00315143Y-00226497*
X00314*
X00312858Y-00226116*
X00312477Y-00225735*
X00312096Y-00224973*
X00680997Y-00220019D02*
X00680235Y-00220399D01*
X00679473Y-00221161*
X00679092Y-00221923*
X00678711Y-00223066*
Y-0022497*
X00679092Y-00226112*
X00679473Y-00226874*
X00680235Y-00227636*
X00680997Y-00228017*
X0068252*
X00683282Y-00227636*
X00684044Y-00226874*
X00684425Y-00226112*
X00684805Y-0022497*
Y-00223066*
X00684425Y-00221923*
X00684044Y-00221161*
X00683282Y-00220399*
X0068252Y-00220019*
X00680997*
X00682139Y-00226493D02*
X00684425Y-00228779D01*
X00687053Y-00221923D02*
Y-00221542D01*
X00687433Y-0022078*
X00687814Y-00220399*
X00688576Y-00220019*
X00690099*
X00690861Y-00220399*
X00691242Y-0022078*
X00691623Y-00221542*
Y-00222304*
X00691242Y-00223066*
X0069048Y-00224208*
X00686672Y-00228017*
X00692004*
X00626831Y-00124769D02*
X00626069Y-00125149D01*
X00625307Y-00125911*
X00624926Y-00126673*
X00624545Y-00127816*
Y-0012972*
X00624926Y-00130863*
X00625307Y-00131624*
X00626069Y-00132386*
X00626831Y-00132767*
X00628354*
X00629116Y-00132386*
X00629878Y-00131624*
X00630258Y-00130863*
X00630639Y-0012972*
Y-00127816*
X00630258Y-00126673*
X00629878Y-00125911*
X00629116Y-00125149*
X00628354Y-00124769*
X00626831*
X00627973Y-00131243D02*
X00630258Y-00133529D01*
X00632505Y-00126292D02*
X00633267Y-00125911D01*
X0063441Y-00124769*
Y-00132767*
X00257291Y-00059109D02*
Y-00065203D01*
X00256911Y-00066346*
X0025653Y-00066727*
X00255768Y-00067108*
X00255006*
X00254244Y-00066727*
X00253864Y-00066346*
X00253483Y-00065203*
Y-00064442*
X00259348Y-00060633D02*
X0026011Y-00060252D01*
X00261253Y-00059109*
Y-00067108*
X-00422842Y04256284D02*
Y04248285D01*
X-0041751Y04256284D02*
Y04248285D01*
X-00422842Y04252475D02*
X-0041751D01*
X-00415301Y0425476D02*
X-00414539Y04255141D01*
X-00413397Y04256284*
Y04248285*
X00827598Y03430022D02*
Y03422024D01*
Y03430022D02*
X00830264D01*
X00831406Y03429641*
X00832168Y03428879*
X00832549Y03428117*
X0083293Y03426975*
Y0342507*
X00832549Y03423928*
X00832168Y03423166*
X00831406Y03422404*
X00830264Y03422024*
X00827598*
X00836624Y03430022D02*
Y03425451D01*
X0083472Y03428879D02*
X00838529Y03426594D01*
Y03428879D02*
X0083472Y03426594D01*
X003248Y-00088319D02*
Y-00096318D01*
Y-00088319D02*
X00327466D01*
X00328609Y-000887*
X00329371Y-00089462*
X00329752Y-00090224*
X00330133Y-00091366*
Y-00093271*
X00329752Y-00094413*
X00329371Y-00095175*
X00328609Y-00095937*
X00327466Y-00096318*
X003248*
X00332684Y-00088319D02*
X00336874D01*
X00334589Y-00091366*
X00335731*
X00336493Y-00091747*
X00336874Y-00092128*
X00337255Y-00093271*
Y-00094032*
X00336874Y-00095175*
X00336112Y-00095937*
X0033497Y-00096318*
X00333827*
X00332684Y-00095937*
X00332303Y-00095556*
X00331923Y-00094794*
X-00038896Y-00092129D02*
Y-00100128D01*
Y-00092129D02*
X-0003623D01*
X-00035087Y-0009251*
X-00034325Y-00093272*
X-00033945Y-00094034*
X-00033564Y-00095176*
Y-00097081*
X-00033945Y-00098223*
X-00034325Y-00098985*
X-00035087Y-00099747*
X-0003623Y-00100128*
X-00038896*
X-00031393Y-00094034D02*
Y-00093653D01*
X-00031012Y-00092891*
X-00030631Y-0009251*
X-00029869Y-00092129*
X-00028346*
X-00027584Y-0009251*
X-00027203Y-00092891*
X-00026822Y-00093653*
Y-00094415*
X-00027203Y-00095176*
X-00027965Y-00096319*
X-00031774Y-00100128*
X-00026441*
X-00020644Y-00092129D02*
Y-00100128D01*
Y-00092129D02*
X-00017978D01*
X-00016835Y-0009251*
X-00016073Y-00093272*
X-00015693Y-00094034*
X-00015312Y-00095176*
Y-00097081*
X-00015693Y-00098223*
X-00016073Y-00098985*
X-00016835Y-00099747*
X-00017978Y-00100128*
X-00020644*
X-00013522Y-00093653D02*
X-0001276Y-00093272D01*
X-00011617Y-00092129*
Y-00100128*
X00043183Y-00284145D02*
X00042421Y-00284525D01*
X00041659Y-00285287*
X00041278Y-00286049*
Y-00287572*
X00041659Y-00288334*
X00042421Y-00289096*
X00043183Y-00289477*
X00044325Y-00289857*
X0004623*
X00047372Y-00289477*
X00048134Y-00289096*
X00048896Y-00288334*
X00049277Y-00287572*
Y-00286049*
X00048896Y-00285287*
X00048134Y-00284525*
X00047372Y-00284145*
X00042802Y-00281897D02*
X00042421Y-00281136D01*
X00041278Y-00279993*
X00049277*
X00041278Y-00273747D02*
X00041659Y-00274889D01*
X00042802Y-00275651*
X00044706Y-00276032*
X00045849*
X00047753Y-00275651*
X00048896Y-00274889*
X00049277Y-00273747*
Y-00272985*
X00048896Y-00271842*
X00047753Y-00271081*
X00045849Y-002707*
X00044706*
X00042802Y-00271081*
X00041659Y-00271842*
X00041278Y-00272985*
Y-00273747*
X00031753Y-00283561D02*
X00030991Y-00283942D01*
X00030229Y-00284704*
X00029848Y-00285466*
Y-00286989*
X00030229Y-00287751*
X00030991Y-00288513*
X00031753Y-00288894*
X00032895Y-00289274*
X000348*
X00035942Y-00288894*
X00036704Y-00288513*
X00037466Y-00287751*
X00037847Y-00286989*
Y-00285466*
X00037466Y-00284704*
X00036704Y-00283942*
X00035942Y-00283561*
X00032514Y-00276363D02*
X00033657Y-00276744D01*
X00034419Y-00277506*
X000348Y-00278648*
Y-00279029*
X00034419Y-00280172*
X00033657Y-00280933*
X00032514Y-00281314*
X00032134*
X00030991Y-00280933*
X00030229Y-00280172*
X00029848Y-00279029*
Y-00278648*
X00030229Y-00277506*
X00030991Y-00276744*
X00032514Y-00276363*
X00034419*
X00036323Y-00276744*
X00037466Y-00277506*
X00037847Y-00278648*
Y-0027941*
X00037466Y-00280552*
X00036704Y-00280933*
X00026564Y-00082264D02*
X00026184Y-00081502D01*
X00025422Y-0008074*
X0002466Y-00080359*
X00023137*
X00022375Y-0008074*
X00021613Y-00081502*
X00021232Y-00082264*
X00020851Y-00083406*
Y-00085311*
X00021232Y-00086453*
X00021613Y-00087215*
X00022375Y-00087977*
X00023137Y-00088358*
X0002466*
X00025422Y-00087977*
X00026184Y-00087215*
X00026564Y-00086453*
X00030716Y-00080359D02*
X00029573Y-0008074D01*
X00029192Y-00081502*
Y-00082264*
X00029573Y-00083026*
X00030335Y-00083406*
X00031859Y-00083787*
X00033001Y-00084168*
X00033763Y-0008493*
X00034144Y-00085692*
Y-00086834*
X00033763Y-00087596*
X00033382Y-00087977*
X00032239Y-00088358*
X00030716*
X00029573Y-00087977*
X00029192Y-00087596*
X00028812Y-00086834*
Y-00085692*
X00029192Y-0008493*
X00029954Y-00084168*
X00031097Y-00083787*
X0003262Y-00083406*
X00033382Y-00083026*
X00033763Y-00082264*
Y-00081502*
X00033382Y-0008074*
X00032239Y-00080359*
X00030716*
X00026564Y-00095304D02*
X00026184Y-00094542D01*
X00025422Y-0009378*
X0002466Y-00093399*
X00023137*
X00022375Y-0009378*
X00021613Y-00094542*
X00021232Y-00095304*
X00020851Y-00096446*
Y-00098351*
X00021232Y-00099493*
X00021613Y-00100255*
X00022375Y-00101017*
X00023137Y-00101398*
X0002466*
X00025422Y-00101017*
X00026184Y-00100255*
X00026564Y-00099493*
X00034144Y-00093399D02*
X00030335Y-00101398D01*
X00028812Y-00093399D02*
X00034144D01*
X00025485Y-00119434D02*
X00025104Y-00118672D01*
X00024342Y-0011791*
X00023581Y-00117529*
X00022057*
X00021295Y-0011791*
X00020534Y-00118672*
X00020153Y-00119434*
X00019772Y-00120576*
Y-00122481*
X00020153Y-00123623*
X00020534Y-00124385*
X00021295Y-00125147*
X00022057Y-00125528*
X00023581*
X00024342Y-00125147*
X00025104Y-00124385*
X00025485Y-00123623*
X00032303Y-00118672D02*
X00031922Y-0011791D01*
X00030779Y-00117529*
X00030017*
X00028875Y-0011791*
X00028113Y-00119053*
X00027732Y-00120957*
Y-00122862*
X00028113Y-00124385*
X00028875Y-00125147*
X00030017Y-00125528*
X00030398*
X00031541Y-00125147*
X00032303Y-00124385*
X00032683Y-00123243*
Y-00122862*
X00032303Y-00121719*
X00031541Y-00120957*
X00030398Y-00120576*
X00030017*
X00028875Y-00120957*
X00028113Y-00121719*
X00027732Y-00122862*
X00199581Y03351663D02*
X001992Y03352425D01*
X00198438Y03353187*
X00197676Y03353568*
X00196153*
X00195391Y03353187*
X00194629Y03352425*
X00194248Y03351663*
X00193868Y03350521*
Y03348616*
X00194248Y03347474*
X00194629Y03346712*
X00195391Y0334595*
X00196153Y03345569*
X00197676*
X00198438Y0334595*
X001992Y03346712*
X00199581Y03347474*
X00206398Y03353568D02*
X0020259D01*
X00202209Y0335014*
X0020259Y03350521*
X00203732Y03350902*
X00204875*
X00206017Y03350521*
X00206779Y03349759*
X0020716Y03348616*
Y03347855*
X00206779Y03346712*
X00206017Y0334595*
X00204875Y03345569*
X00203732*
X0020259Y0334595*
X00202209Y03346331*
X00201828Y03347093*
X00190945Y03450469D02*
X00190564Y03451231D01*
X00189802Y03451993*
X0018904Y03452374*
X00187517*
X00186755Y03451993*
X00185993Y03451231*
X00185612Y03450469*
X00185232Y03449327*
Y03447422*
X00185612Y0344628*
X00185993Y03445518*
X00186755Y03444756*
X00187517Y03444376*
X0018904*
X00189802Y03444756*
X00190564Y03445518*
X00190945Y0344628*
X00197Y03452374D02*
X00193192Y03447042D01*
X00198905*
X00197Y03452374D02*
Y03444376D01*
X00206185Y03450469D02*
X00205804Y03451231D01*
X00205042Y03451993*
X0020428Y03452374*
X00202757*
X00201995Y03451993*
X00201233Y03451231*
X00200853Y03450469*
X00200472Y03449327*
Y03447422*
X00200853Y0344628*
X00201233Y03445518*
X00201995Y03444756*
X00202757Y03444376*
X0020428*
X00205042Y03444756*
X00205804Y03445518*
X00206185Y0344628*
X00209194Y03452374D02*
X00213383D01*
X00211098Y03449327*
X0021224*
X00213002Y03448946*
X00213383Y03448565*
X00213764Y03447422*
Y03446661*
X00213383Y03445518*
X00212621Y03444756*
X00211479Y03444376*
X00210336*
X00209194Y03444756*
X00208813Y03445137*
X00208432Y03445899*
X00365697Y03500507D02*
X00365316Y03501269D01*
X00364554Y03502031*
X00363792Y03502412*
X00362269*
X00361507Y03502031*
X00360745Y03501269*
X00360364Y03500507*
X00359984Y03499365*
Y03497461*
X00360364Y03496318*
X00360745Y03495556*
X00361507Y03494794*
X00362269Y03494413*
X00363792*
X00364554Y03494794*
X00365316Y03495556*
X00365697Y03496318*
X00368325Y03500507D02*
Y03500888D01*
X00368706Y0350165*
X00369086Y03502031*
X00369848Y03502412*
X00371372*
X00372133Y03502031*
X00372514Y0350165*
X00372895Y03500888*
Y03500127*
X00372514Y03499365*
X00371753Y03498222*
X00367944Y03494413*
X00373276*
X00060897Y03505587D02*
X00060516Y03506349D01*
X00059754Y03507111*
X00058992Y03507492*
X00057469*
X00056707Y03507111*
X00055945Y03506349*
X00055565Y03505587*
X00055184Y03504445*
Y03502541*
X00055565Y03501398*
X00055945Y03500636*
X00056707Y03499874*
X00057469Y03499493*
X00058992*
X00059754Y03499874*
X00060516Y03500636*
X00060897Y03501398*
X00063144Y03505968D02*
X00063906Y03506349D01*
X00065048Y03507492*
Y03499493*
G54D17*
X-00286913Y0410718D02*
X-00284057Y04108609D01*
X-002812Y04111465*
X-00279772Y04114322*
Y04120035*
X-002812Y04122891*
X-00284057Y04125748*
X-00286913Y04127176*
X-00291198Y04128604*
X-00298339*
X-00302624Y04127176*
X-00305481Y04125748*
X-00308337Y04122891*
X-00309765Y04120035*
Y04114322*
X-00308337Y04111465*
X-00305481Y04108609*
X-00302624Y0410718*
X-00298339*
Y04114322D02*
Y0410718D01*
X-00279772Y04100325D02*
X-00309765D01*
X-00279772D02*
X-00309765Y04080329D01*
X-00279772D02*
X-00309765D01*
X-00279772Y04072045D02*
X-00309765D01*
X-00279772D02*
Y04062047D01*
X-002812Y04057762*
X-00284057Y04054906*
X-00286913Y04053478*
X-00291198Y04052049*
X-00298339*
X-00302624Y04053478*
X-00305481Y04054906*
X-00308337Y04057762*
X-00309765Y04062047*
Y04072045*
X-00281042Y03731094D02*
X-00311035Y03719668D01*
X-00281042Y03708242D02*
X-00311035Y03719668D01*
X-00288183Y03682962D02*
X-00285327Y0368439D01*
X-0028247Y03687247*
X-00281042Y03690103*
Y03695816*
X-0028247Y03698673*
X-00285327Y03701529*
X-00288183Y03702958*
X-00292468Y03704386*
X-00299609*
X-00303894Y03702958*
X-00306751Y03701529*
X-00309607Y03698673*
X-00311035Y03695816*
Y03690103*
X-00309607Y03687247*
X-00306751Y0368439*
X-00303894Y03682962*
X-00288183Y03653111D02*
X-00285327Y03654539D01*
X-0028247Y03657396*
X-00281042Y03660253*
Y03665965*
X-0028247Y03668822*
X-00285327Y03671679*
X-00288183Y03673107*
X-00292468Y03674535*
X-00299609*
X-00303894Y03673107*
X-00306751Y03671679*
X-00309607Y03668822*
X-00311035Y03665965*
Y03660253*
X-00309607Y03657396*
X-00306751Y03654539*
X-00303894Y03653111*
G54D18*
X00397079Y03366205D02*
Y03376361D01*
X00392001Y03371283D02*
X00402158D01*
X00092279Y03371285D02*
Y03381442D01*
X00087201Y03376363D02*
X00097358D01*
M02*