%FSTAX44Y44*%
%MOMM*%
%SFA1B1*%

%IPPOS*%
%ADD72C,0.010000*%
%ADD73R,17.999964X6.299987*%
%LNpcb1-1*%
%LPD*%
G54D72*
X00471219Y-00022299D02*
D01*
X00540976Y-00019863*
X00610392Y-00012567*
X00679131Y-00000447*
X00746857Y00016438*
X00813239Y00038007*
X00877956Y00064154*
X00940691Y00094752*
X01001139Y00129651*
X01059005Y00168682*
X01114007Y00211655*
X01165878Y0025836*
X01214364Y00308569*
X0125923Y00362038*
X01300257Y00418506*
X01337245Y00477699*
X01370014Y00539328*
X01398403Y00603093*
X01422276Y00668682*
X01441515Y00735778*
X01456027Y00804051*
X01465741Y00873171*
X0147061Y009428*
X01471219Y00977699*
D01*
X01468783Y01047456*
X01461488Y01116873*
X01449367Y01185611*
X01432481Y01253337*
X01410912Y01319719*
X01384765Y01384436*
X01354167Y01447171*
X01319267Y01507619*
X01280236Y01565485*
X01237264Y01620487*
X01190559Y01672358*
X0114035Y01720844*
X01086881Y0176571*
X01030412Y01806737*
X00971219Y01843725*
X00909591Y01876493*
X00845826Y01904883*
X00780236Y01928756*
X00713141Y01947995*
X00644868Y01962507*
X00575748Y01972221*
X00506119Y0197709*
X00471219Y01977699*
D01*
X00401463Y01975264*
X00332046Y01967967*
X00263308Y01955847*
X00195582Y01938961*
X00129199Y01917392*
X00064483Y01891245*
X00001748Y01860647*
X-00058699Y01825747*
X-00116565Y01786716*
X-00171567Y01743744*
X-00223438Y01697039*
X-00271924Y0164683*
X-0031679Y01593361*
X-00357817Y01536892*
X-00394805Y01477699*
X-00427573Y01416071*
X-00455963Y01352306*
X-00479836Y01286716*
X-00499075Y01219621*
X-00513587Y01151347*
X-00523301Y01082228*
X-0052817Y01012599*
X-00528779Y00977699*
D01*
X-00526343Y00907943*
X-00519047Y00838526*
X-00506927Y00769788*
X-00490041Y00702062*
X-00468472Y00635679*
X-00442325Y00570963*
X-00411727Y00508228*
X-00376828Y0044778*
X-00337796Y00389914*
X-00294824Y00334912*
X-00248119Y00283041*
X-0019791Y00234555*
X-00144441Y00189689*
X-00087972Y00148662*
X-00028779Y00111674*
X00032848Y00078905*
X00096613Y00050516*
X00162202Y00026643*
X00229297Y00007404*
X00297571Y-00007107*
X00366691Y-00016821*
X0043632Y-0002169*
X00471219Y-00022299*
X-00691324Y-02315769D02*
D01*
X-00690938Y-02326768*
X-00689786Y-02337713*
X-00687873Y-02348551*
X-00685208Y-02359229*
X-00681805Y-02369695*
X-00677681Y-02379898*
X-00672854Y-02389789*
X-0066735Y-02399319*
X-00661194Y-02408442*
X-00654416Y-02417113*
X-00647051Y-02425291*
X-00639133Y-02432934*
X-00630701Y-02440007*
X-00621796Y-02446474*
X-00612461Y-02452304*
X-00602743Y-02457469*
X-00592688Y-02461944*
X-00582346Y-02465706*
X-00571766Y-02468737*
X-00561001Y-02471023*
X-00550102Y-02472553*
X-00539123Y-02473318*
X-00534109Y-02473413*
D01*
X-0053403Y-02473454*
X-00533948Y-02473489*
X-00533864Y-02473518*
X-00533778Y-02473541*
X-00533691Y-02473558*
X-00533603Y-02473568*
X-00533514Y-02473573*
X-00533491Y-02473572*
X0146447D02*
D01*
X01464557Y-02473594*
X01464644Y-02473609*
X01464733Y-02473618*
X01464819Y-02473621*
D01*
X01465602Y-02473619*
X01466385Y-02473614*
X01467168Y-02473604*
X01467951Y-0247359*
X01468733Y-02473572*
X01471231D02*
D01*
X0147132Y-02473569*
X01471409Y-0247356*
X01471496Y-02473544*
X01471583Y-02473523*
X01471667Y-02473495*
X01471733Y-02473469*
D01*
X01482705Y-02472603*
X01493589Y-02470974*
X01504333Y-0246859*
X01514884Y-02465461*
X01525192Y-02461605*
X01535205Y-02457039*
X01544876Y-02451785*
X01554157Y-0244587*
X01563002Y-02439322*
X01571369Y-02432172*
X01579217Y-02424456*
X01586507Y-02416212*
X01593205Y-02407479*
X01599277Y-02398301*
X01604695Y-02388721*
X0160943Y-02378786*
X01613461Y-02368546*
X01616768Y-02358049*
X01619335Y-02347347*
X01621149Y-02336492*
X01622201Y-02325537*
X01622338Y-02322918*
D01*
X01622378Y-02322839*
X01622412Y-02322757*
X0162244Y-02322673*
X01622462Y-02322586*
X01622479Y-02322499*
X01622489Y-02322411*
X01622492Y-02322322*
X01622493Y-02322311*
Y-02315956D02*
D01*
X01622494Y-02315955*
X01622494Y-02315953*
Y-02315951*
Y-0231595*
X01622494Y-02315948*
X01622493Y-02315947*
Y-02315946*
X01622492Y00029825D02*
D01*
X01685808Y00112443*
X01743207Y00199276*
X01794409Y00289902*
X01839164Y00383879*
X01877254Y00480748*
X01908495Y00580039*
X01932733Y00681267*
X01949851Y00783939*
X01959765Y00887555*
X01962493Y00977699*
D01*
X01958861Y01081725*
X0194798Y01185245*
X01929905Y01287753*
X01904724Y0138875*
X01872559Y01487745*
X01833566Y01584255*
X01787936Y0167781*
X01735891Y01767954*
X01677686Y01854248*
X01633735Y01911751*
Y0427114D02*
D01*
Y04271146*
Y04271152*
X01633735Y04271158*
Y04271164*
X01633735Y0427117*
D01*
X01633349Y04282169*
X01632197Y04293114*
X01630284Y04303952*
X01627619Y0431463*
X01624216Y04325096*
X01620092Y043353*
X01615265Y0434519*
X01609761Y0435472*
X01603605Y04363843*
X01596827Y04372514*
X01589462Y04380692*
X01581543Y04388335*
X01573111Y04395408*
X01564207Y04401875*
X01554872Y04407705*
X01545154Y0441287*
X01535099Y04417344*
X01524757Y04421106*
X01514177Y04424138*
X01503412Y04426424*
X01492513Y04427954*
X01481534Y04428719*
X0147652Y04428813*
D01*
X01476441Y04428854*
X01476359Y04428889*
X01476275Y04428917*
X01476189Y04428941*
X01476102Y04428958*
X01476014Y04428969*
X01475925Y04428973*
X01475902Y04428973*
X-0052206D02*
D01*
X-00522147Y04428995*
X-00522234Y0442901*
X-00522323Y04429019*
X-00522408Y04429022*
D01*
X-00523191Y0442902*
X-00523974Y04429015*
X-00524757Y04429005*
X-0052554Y04428991*
X-00526322Y04428973*
X-0052882D02*
D01*
X-00528909Y0442897*
X-00528998Y04428961*
X-00529085Y04428945*
X-00529171Y04428924*
X-00529256Y04428897*
X-00529322Y04428871*
D01*
X-00540294Y04428004*
X-00551178Y04426375*
X-00561922Y04423991*
X-00572474Y04420862*
X-00582781Y04417006*
X-00592795Y0441244*
X-00602465Y04407186*
X-00611746Y04401271*
X-00620591Y04394722*
X-00628958Y04387573*
X-00636806Y04379857*
X-00644097Y04371613*
X-00650794Y0436288*
X-00656866Y04353701*
X-00662283Y04344122*
X-00667019Y04334187*
X-0067105Y04323947*
X-00674357Y0431345*
X-00676924Y04302748*
X-00678738Y04291893*
X-0067979Y04280938*
X-00679928Y04278319*
D01*
X-00679968Y0427824*
X-00680002Y04278158*
X-0068003Y04278073*
X-00680052Y04277987*
X-00680068Y042779*
X-00680078Y04277811*
X-00680082Y04277722*
X-00680082Y04277711*
Y01925539D02*
D01*
X-00743396Y0184292*
X-00800792Y01756085*
X-0085199Y01665457*
X-00896743Y01571479*
X-0093483Y01474609*
X-00966068Y01375317*
X-00990303Y01274088*
X-01007418Y01171416*
X-01017329Y01067799*
X-01019988Y00963744*
X-01015382Y00859756*
X-01003533Y00756344*
X-009845Y00654009*
X-00958374Y00553252*
X-00925283Y00454562*
X-00885389Y00358421*
X-00838886Y00265298*
X-00786Y00175645*
X-00726989Y00089899*
X-00691325Y00043684*
Y-02315739D02*
D01*
Y-02315745*
Y-02315751*
Y-02315757*
Y-02315763*
X-00691324Y-02315769*
X-00533491Y-02473572D02*
X0146447D01*
X01468733D02*
X01471231D01*
X01622493Y-02322311D02*
Y-02315956D01*
X01622492Y00029825D02*
X01622493Y-02315946D01*
X01633735Y01911751D02*
Y0427114D01*
X-0052206Y04428973D02*
X01475902D01*
X-0052882D02*
X-00526322D01*
X-00680082Y01925539D02*
Y04277711D01*
X-00691325Y00043684D02*
Y-02315739D01*
G54D73*
X00132527Y-00028259D03*
D03*
M02*