%FSTAX44Y44*%
%MOMM*%
%SFA1B1*%

%IPPOS*%
%ADD23R,3.299993X1.599997*%
%ADD24R,1.199998X1.599997*%
%ADD29R,1.329997X1.329997*%
%ADD30R,0.899998X1.999996*%
%ADD31R,1.999996X0.899998*%
%ADD33R,2.999994X1.599997*%
%ADD34R,6.199988X5.799988*%
%ADD40R,0.499999X0.549999*%
%ADD41R,0.549999X0.499999*%
%ADD42R,0.649999X0.699999*%
%ADD43O,1.299997X0.399999*%
%ADD44R,0.699999X0.649999*%
%ADD45R,2.199996X2.499995*%
%ADD46C,0.999998*%
%ADD47R,0.849998X0.699999*%
%ADD48R,0.999998X0.699999*%
%ADD49R,9.999980X29.999940*%
%ADD50R,2.699995X4.499991*%
%ADD51R,0.899998X0.799998*%
%ADD52R,0.899998X1.199998*%
%ADD53R,0.649999X1.199998*%
%ADD54C,5.999988*%
%LNpcb1-1*%
%LPD*%
G36*
X01009371Y03331818D02*
Y03326818D01*
X01002371*
Y03331818*
X00996021*
Y03326818*
X00989021*
Y03331818*
X00982721*
Y03326818*
X00975721*
Y03331818*
X00969371*
Y03326818*
X00962371*
Y03331818*
Y03376818*
X01009371*
Y03331818*
G37*
G54D23*
X00656148Y-00133209D03*
X00657418Y-00222879D03*
X00284038D03*
G54D24*
X00633148Y-00069209D03*
X00656148D03*
X00679148D03*
X00680418Y-00286879D03*
X00657418D03*
X00634418D03*
X00307038D03*
X00284038D03*
X00261038D03*
G54D29*
X00140878Y-00165009D03*
X00122528D03*
X00104178D03*
X00140878Y-00146659D03*
X00122528D03*
X00104178D03*
X00140878Y-00128309D03*
X00122528D03*
X00104178D03*
G54D30*
X00189678Y-00246759D03*
X00176978D03*
X00164278D03*
X00151578D03*
X00138878D03*
X00126178D03*
X00113478D03*
X00100778D03*
X00088078D03*
X00075378D03*
G54D31*
X00217528Y-00071659D03*
Y-00084359D03*
Y-00097059D03*
Y-00109759D03*
Y-00122459D03*
Y-00135159D03*
Y-00147859D03*
Y-00160559D03*
Y-00173259D03*
Y-00185959D03*
Y-00198659D03*
Y-00211359D03*
Y-00224059D03*
Y-00236759D03*
X00047528D03*
Y-00224059D03*
Y-00211359D03*
Y-00198659D03*
Y-00185959D03*
Y-00173259D03*
Y-00160559D03*
Y-00147859D03*
Y-00135159D03*
Y-00122459D03*
Y-00109759D03*
Y-00097059D03*
Y-00084359D03*
Y-00071659D03*
G54D33*
X00237228Y03393603D03*
Y03439303D03*
G54D34*
X00308128Y03416453D03*
G54D40*
X00315638Y03491383D03*
X00306138D03*
X00315638Y03471063D03*
X00306138D03*
X00013198Y-00122459D03*
X00003698D03*
X00003652Y-00109102D03*
X00013152D03*
X00013198Y-00085389D03*
X00003698D03*
X00013198Y-00097059D03*
X00003698D03*
G54D41*
X00190058Y03431363D03*
Y03421863D03*
X00205298Y03431363D03*
Y03421863D03*
X00144304Y-00291904D03*
Y-00282404D03*
X00131604Y-00291904D03*
Y-00282404D03*
X00043974Y-00305563D03*
Y-00296063D03*
X00032164Y-00305563D03*
Y-00296063D03*
X00167198Y03333809D03*
Y03324309D03*
X00182438Y03333809D03*
Y03324309D03*
X00197678D03*
Y03333809D03*
G54D42*
X00118904Y-00291904D03*
Y-00282404D03*
X00703138Y-00079309D03*
Y-00069809D03*
X0002846Y-00202206D03*
Y-00211706D03*
Y-00156008D03*
Y-00165508D03*
G54D43*
X00101276Y-00305063D03*
Y-00298563D03*
Y-00292063D03*
Y-00285563D03*
X00060276Y-00305063D03*
Y-00298563D03*
Y-00292063D03*
Y-00285563D03*
G54D44*
X00598058Y-00286879D03*
X00607558D03*
X00296408Y-00068189D03*
X00286908D03*
X00297863Y-00200841D03*
X00288363D03*
X00297796Y-00189638D03*
X00288296D03*
X00297863Y-00178679D03*
X00288363D03*
X00297863Y-00167704D03*
X00288363D03*
X00297678Y-00156822D03*
X00288178D03*
X00297678Y-00145575D03*
X00288178D03*
X00298263Y-00134932D03*
X00288763D03*
X00004112Y-00134362D03*
X00013612D03*
X00004033Y-00145749D03*
X00013533D03*
X0022702Y-00287154D03*
X0023652D03*
X00931128Y03389318D03*
X00940628D03*
G54D45*
X00508574Y-00248749D03*
X00483174D03*
X00457774D03*
X00432374D03*
X00406974D03*
X00533974Y-00103749D03*
X00508574D03*
X00483174D03*
X00457774D03*
X00432374D03*
X00406974D03*
G54D46*
X00257148Y-00125639D03*
Y-00112939D03*
Y-00100239D03*
Y-00087539D03*
Y-00074839D03*
X00239624Y-00134932D03*
Y-00092559D03*
G54D47*
X-0001632Y-00109417D03*
Y-00125917D03*
X-00032669Y-00109418D03*
Y-00125918D03*
G54D48*
X00012618Y-00202158D03*
X-0003238D03*
X00012618Y-00223658D03*
X-0003238D03*
X00012618Y-00157258D03*
X-0003238D03*
X00012618Y-00178758D03*
X-0003238D03*
G54D49*
X-00374455Y03694184D03*
X-00373185Y04091694D03*
G54D50*
X00421198Y03369893D03*
Y03455393D03*
X00116398Y03374973D03*
Y03460473D03*
G54D51*
X00855378Y0340714D03*
Y03388139D03*
X00835378D03*
G54D52*
X00835378Y03405139D03*
G54D53*
X01005937Y03333128D03*
X00992475D03*
X00979267D03*
X00965805D03*
X00966821Y03389318D03*
X00979521D03*
X00992221D03*
X01004921D03*
G54D54*
X0Y0D03*
X00916498Y-00000244D03*
X0Y-00268605D03*
X00916498Y-00268849D03*
X01542756Y-00597248D03*
X01542741Y-02040366D03*
X01186482Y-02393422D03*
X-0025603Y-02393476D03*
X-00609798Y-02043232D03*
X-0060971Y-00595249D03*
X01476061Y03430279D03*
X-00522408Y0343025D03*
X01476061Y0427114D03*
X-00522408Y04271348D03*
M02*