%FSTAX44Y44*%
%MOMM*%
%SFA1B1*%

%IPPOS*%
%ADD11C,0.250000*%
%ADD18C,0.253999*%
%LNpcb1-1*%
%LPD*%
G54D11*
X-0052882Y044277D02*
X01475902D01*
X-00678808Y04271348D02*
Y03273849D01*
X01632461Y0427114D02*
Y0327388D01*
X-00679442Y03273849D02*
X-00042877D01*
X00994621D02*
X01632461D01*
X-00042877D02*
X00994625D01*
X00960948Y00093386D02*
Y-00309489D01*
X-00044891Y00105D02*
X-0004489Y-00313299D01*
X00957138D02*
X00960948Y-00309489D01*
X-0004489Y-00313299D02*
X00957138D01*
G54D18*
X-00522408Y04427748D02*
D01*
X-00533318Y04427367*
X-00544175Y04426226*
X-00554926Y04424331*
X-00565518Y0442169*
X-005759Y04418316*
X-00586022Y04414227*
X-00595834Y04409441*
X-00605288Y04403983*
X-00614338Y04397879*
X-0062294Y04391158*
X-00631053Y04383853*
X-00638636Y04376*
X-00645653Y04367638*
X-0065207Y04358806*
X-00657855Y04349548*
X-0066298Y0433991*
X-0066742Y04329937*
X-00671154Y04319679*
X-00674163Y04309185*
X-00676432Y04298507*
X-00677952Y04287697*
X-00678713Y04276807*
X-00678808Y04271348*
X01632461Y0427114D02*
D01*
X0163208Y0428205*
X01630939Y04292907*
X01629044Y04303658*
X01626403Y0431425*
X01623029Y04324632*
X0161894Y04334754*
X01614154Y04344566*
X01608696Y0435402*
X01602592Y0436307*
X01595871Y04371672*
X01588566Y04379785*
X01580713Y04387368*
X01572351Y04394385*
X01563519Y04400802*
X01554261Y04406587*
X01544623Y04411712*
X0153465Y04416152*
X01524392Y04419886*
X01513898Y04422895*
X0150322Y04425164*
X0149241Y04426684*
X0148152Y04427445*
X01476061Y0442754*
X-00044203Y00105D02*
D01*
X00017784Y00071379*
X00081967Y00042163*
X00148031Y00017496*
X00215655Y-00002501*
X0028451Y-00017734*
X00354259Y-00028127*
X00424564Y-00033629*
X00495081Y-00034213*
X00565467Y-00029877*
X00635379Y-00020641*
X00704476Y-00006551*
X00772423Y00012323*
X00838887Y00035892*
X00903545Y00064041*
X0096031Y00093386*
X01743701Y03447107D02*
Y03431872D01*
X01751319*
X01753858Y03434412*
Y03436951*
X01751319Y0343949*
X01743701*
X01751319*
X01753858Y03442029*
Y03444568*
X01751319Y03447107*
X01743701*
X01761475Y03431872D02*
X01766554D01*
X01769093Y03434412*
Y0343949*
X01766554Y03442029*
X01761475*
X01758936Y0343949*
Y03434412*
X01761475Y03431872*
X0177671Y03444568D02*
Y03442029D01*
X01774171*
X01779249*
X0177671*
Y03434412*
X01779249Y03431872*
X01789406Y03444568D02*
Y03442029D01*
X01786867*
X01791945*
X01789406*
Y03434412*
X01791945Y03431872*
X01802102D02*
X01807181D01*
X0180972Y03434412*
Y0343949*
X01807181Y03442029*
X01802102*
X01799563Y0343949*
Y03434412*
X01802102Y03431872*
X01814798D02*
Y03442029D01*
X01817337*
X01819876Y0343949*
Y03431872*
Y0343949*
X01822416Y03442029*
X01824955Y0343949*
Y03431872*
X01855425Y03444568D02*
X01852886Y03447107D01*
X01847807*
X01845268Y03444568*
Y03442029*
X01847807Y0343949*
X01852886*
X01855425Y03436951*
Y03434412*
X01852886Y03431872*
X01847807*
X01845268Y03434412*
X01863042Y03444568D02*
Y03442029D01*
X01860503*
X01865582*
X01863042*
Y03434412*
X01865582Y03431872*
X01880817D02*
X01875738D01*
X01873199Y03434412*
Y0343949*
X01875738Y03442029*
X01880817*
X01883356Y0343949*
Y03436951*
X01873199*
X01896052Y03431872D02*
X01890973D01*
X01888434Y03434412*
Y0343949*
X01890973Y03442029*
X01896052*
X01898591Y0343949*
Y03436951*
X01888434*
X01903669Y03431872D02*
X01908748D01*
X01906208*
Y03447107*
X01903669*
X01941757Y03444568D02*
X01939218Y03447107D01*
X01934139*
X019316Y03444568*
Y03442029*
X01934139Y0343949*
X01939218*
X01941757Y03436951*
Y03434412*
X01939218Y03431872*
X01934139*
X019316Y03434412*
X01949374Y03444568D02*
Y03442029D01*
X01946835*
X01951914*
X01949374*
Y03434412*
X01951914Y03431872*
X01959531D02*
X01964609D01*
X0196207*
Y03442029*
X01959531*
X01974766Y03431872D02*
Y03444568D01*
Y0343949*
X01972227*
X01977305*
X01974766*
Y03444568*
X01977305Y03447107*
X01987462Y03431872D02*
Y03444568D01*
Y0343949*
X01984923*
X01990001*
X01987462*
Y03444568*
X01990001Y03447107*
X02005236Y03431872D02*
X02000158D01*
X01997619Y03434412*
Y0343949*
X02000158Y03442029*
X02005236*
X02007776Y0343949*
Y03436951*
X01997619*
X02012854Y03431872D02*
Y03442029D01*
X02020471*
X02023011Y0343949*
Y03431872*
X02035707D02*
X02030628D01*
X02028089Y03434412*
Y0343949*
X02030628Y03442029*
X02035707*
X02038246Y0343949*
Y03436951*
X02028089*
X02043324Y03442029D02*
Y03431872D01*
Y03436951*
X02045863Y0343949*
X02048402Y03442029*
X02050942*
X01732753Y-00145745D02*
Y-0016098D01*
X0174037*
X01742909Y-00158441*
Y-00155901*
X0174037Y-00153362*
X01732753*
X0174037*
X01742909Y-00150823*
Y-00148284*
X0174037Y-00145745*
X01732753*
X01750527Y-0016098D02*
X01755605D01*
X01758145Y-00158441*
Y-00153362*
X01755605Y-00150823*
X01750527*
X01747988Y-00153362*
Y-00158441*
X01750527Y-0016098*
X01765762Y-00148284D02*
Y-00150823D01*
X01763223*
X01768301*
X01765762*
Y-00158441*
X01768301Y-0016098*
X01778458Y-00148284D02*
Y-00150823D01*
X01775919*
X01780997*
X01778458*
Y-00158441*
X01780997Y-0016098*
X01791154D02*
X01796232D01*
X01798771Y-00158441*
Y-00153362*
X01796232Y-00150823*
X01791154*
X01788615Y-00153362*
Y-00158441*
X01791154Y-0016098*
X0180385D02*
Y-00150823D01*
X01806389*
X01808928Y-00153362*
Y-0016098*
Y-00153362*
X01811467Y-00150823*
X01814007Y-00153362*
Y-0016098*
X01844477Y-00148284D02*
X01841937Y-00145745D01*
X01836859*
X0183432Y-00148284*
Y-00150823*
X01836859Y-00153362*
X01841937*
X01844477Y-00155901*
Y-00158441*
X01841937Y-0016098*
X01836859*
X0183432Y-00158441*
X01852094Y-00148284D02*
Y-00150823D01*
X01849555*
X01854633*
X01852094*
Y-00158441*
X01854633Y-0016098*
X01869868D02*
X0186479D01*
X01862251Y-00158441*
Y-00153362*
X0186479Y-00150823*
X01869868*
X01872408Y-00153362*
Y-00155901*
X01862251*
X01885104Y-0016098D02*
X01880025D01*
X01877486Y-00158441*
Y-00153362*
X01880025Y-00150823*
X01885104*
X01887643Y-00153362*
Y-00155901*
X01877486*
X01892721Y-0016098D02*
X01897799D01*
X0189526*
Y-00145745*
X01892721*
X01930809Y-00148284D02*
X0192827Y-00145745D01*
X01923191*
X01920652Y-00148284*
Y-00150823*
X01923191Y-00153362*
X0192827*
X01930809Y-00155901*
Y-00158441*
X0192827Y-0016098*
X01923191*
X01920652Y-00158441*
X01938426Y-00148284D02*
Y-00150823D01*
X01935887*
X01940965*
X01938426*
Y-00158441*
X01940965Y-0016098*
X01948583D02*
X01953661D01*
X01951122*
Y-00150823*
X01948583*
X01963818Y-0016098D02*
Y-00148284D01*
Y-00153362*
X01961279*
X01966357*
X01963818*
Y-00148284*
X01966357Y-00145745*
X01976514Y-0016098D02*
Y-00148284D01*
Y-00153362*
X01973975*
X01979053*
X01976514*
Y-00148284*
X01979053Y-00145745*
X01994288Y-0016098D02*
X0198921D01*
X01986671Y-00158441*
Y-00153362*
X0198921Y-00150823*
X01994288*
X01996827Y-00153362*
Y-00155901*
X01986671*
X02001906Y-0016098D02*
Y-00150823D01*
X02009523*
X02012062Y-00153362*
Y-0016098*
X02024758D02*
X02019681D01*
X02017141Y-00158441*
Y-00153362*
X02019681Y-00150823*
X02024758*
X02027297Y-00153362*
Y-00155901*
X02017141*
X02032376Y-00150823D02*
Y-0016098D01*
Y-00155901*
X02034915Y-00153362*
X02037454Y-00150823*
X02039993*
M02*