%FSTAX44Y44*%
%MOMM*%
%SFA1B1*%

%IPPOS*%
%ADD13C,0.100000*%
%ADD71C,0.050000*%
%LNpcb1-1*%
%LPD*%
G54D13*
X00308388Y03491383D02*
X00313388D01*
X00310888Y03488883D02*
Y03493883D01*
X00308388Y03471063D02*
X00313388D01*
X00310888Y03468563D02*
Y03473563D01*
X00190058Y03424113D02*
Y03429113D01*
X00187558Y03426613D02*
X00192558D01*
X00205298Y03424113D02*
Y03429113D01*
X00202798Y03426613D02*
X00207798D01*
X00141804Y-00287154D02*
X00146804D01*
X00144304Y-00289654D02*
Y-00284654D01*
X00118904Y-00289904D02*
Y-00284404D01*
X00116154Y-00287154D02*
X00121654D01*
X00131604Y-00289654D02*
Y-00284654D01*
X00129104Y-00287154D02*
X00134104D01*
X00075776Y-00295313D02*
X00085776D01*
X00080776Y-00300313D02*
Y-00290313D01*
X00043974Y-00303313D02*
Y-00298313D01*
X00041474Y-00300813D02*
X00046474D01*
X00032164Y-00303313D02*
Y-00298313D01*
X00029664Y-00300813D02*
X00034664D01*
X00703138Y-00077309D02*
Y-00071809D01*
X00700388Y-00074559D02*
X00705888D01*
X00600058Y-00286879D02*
X00605558D01*
X00602808Y-00289629D02*
Y-00284129D01*
X00288908Y-00068189D02*
X00294408D01*
X00291658Y-00070939D02*
Y-00065439D01*
X00290363Y-00200841D02*
X00295863D01*
X00293113Y-00203591D02*
Y-00198091D01*
X00290296Y-00189638D02*
X00295796D01*
X00293046Y-00192388D02*
Y-00186888D01*
X00290363Y-00178679D02*
X00295863D01*
X00293113Y-00181429D02*
Y-00175929D01*
X00290363Y-00167704D02*
X00295863D01*
X00293113Y-00170454D02*
Y-00164954D01*
X00290178Y-00156822D02*
X00295678D01*
X00292928Y-00159572D02*
Y-00154072D01*
X00290178Y-00145575D02*
X00295678D01*
X00292928Y-00148325D02*
Y-00142825D01*
X00290763Y-00134932D02*
X00296263D01*
X00293513Y-00137682D02*
Y-00132182D01*
X00006112Y-00134362D02*
X00011612D01*
X00008862Y-00137112D02*
Y-00131612D01*
X00006033Y-00145749D02*
X00011533D01*
X00008783Y-00148499D02*
Y-00142999D01*
X-0002032Y-00117667D02*
X-0001232D01*
X-0001632Y-00121667D02*
Y-00113667D01*
X-00036669Y-00117668D02*
X-00028669D01*
X-00032669Y-00121668D02*
Y-00113668D01*
X0002846Y-00209706D02*
Y-00204206D01*
X00025711Y-00206956D02*
X00031211D01*
X0002846Y-00163508D02*
Y-00158008D01*
X00025711Y-00160758D02*
X00031211D01*
X00005948Y-00122459D02*
X00010948D01*
X00008448Y-00124959D02*
Y-00119959D01*
X00005902Y-00109102D02*
X00010902D01*
X00008402Y-00111602D02*
Y-00106602D01*
X00005948Y-00085389D02*
X00010948D01*
X00008448Y-00087889D02*
Y-00082889D01*
X00005948Y-00097059D02*
X00010948D01*
X00008448Y-00099559D02*
Y-00094559D01*
X00167198Y03326559D02*
Y03331559D01*
X00164698Y03329059D02*
X00169698D01*
X00421198Y03407643D02*
Y03417643D01*
X00416198Y03412643D02*
X00426198D01*
X00116398Y03412723D02*
Y03422723D01*
X00111398Y03417723D02*
X00121398D01*
X00182438Y03326559D02*
Y03331559D01*
X00179938Y03329059D02*
X00184938D01*
X00197678Y03326559D02*
Y03331559D01*
X00195178Y03329059D02*
X00200178D01*
X0022902Y-00287154D02*
X0023452D01*
X0023177Y-00289904D02*
Y-00284404D01*
X00845378Y03392639D02*
Y03402639D01*
X00840378Y03397639D02*
X00850378D01*
X00980871Y03361068D02*
X00990871D01*
X00985871Y03356068D02*
Y03366068D01*
X00933128Y03389318D02*
X00938628D01*
X00935878Y03386568D02*
Y03392068D01*
G54D71*
X00301888Y03495883D02*
X00319888D01*
X00301888Y03486883D02*
X00319888D01*
X00301888D02*
Y03495883D01*
X00319888Y03486883D02*
Y03495883D01*
X00301888Y03475563D02*
X00319888D01*
X00301888Y03466563D02*
X00319888D01*
X00301888D02*
Y03475563D01*
X00319888Y03466563D02*
Y03475563D01*
X00185558Y03417613D02*
Y03435613D01*
X00194558Y03417613D02*
Y03435613D01*
X00185558Y03417613D02*
X00194558D01*
X00185558Y03435613D02*
X00194558D01*
X00200798Y03417613D02*
Y03435613D01*
X00209798Y03417613D02*
Y03435613D01*
X00200798Y03417613D02*
X00209798D01*
X00200798Y03435613D02*
X00209798D01*
X00139804Y-00278154D02*
X00148804D01*
X00139804Y-00296154D02*
X00148804D01*
Y-00278154*
X00139804Y-00296154D02*
Y-00278154D01*
X00113404Y-00297654D02*
X00124404D01*
X00113404Y-00276654D02*
X00124404D01*
X00113404Y-00297654D02*
Y-00276654D01*
X00124404Y-00297654D02*
Y-00276654D01*
X00136104Y-00296154D02*
Y-00278154D01*
X00127104Y-00296154D02*
Y-00278154D01*
X00136104*
X00127104Y-00296154D02*
X00136104D01*
X00108776Y-00311313D02*
Y-00279313D01*
X00052776Y-00311313D02*
Y-00279313D01*
Y-00311313D02*
X00108776D01*
X00052776Y-00279313D02*
X00108776D01*
X00048474Y-00309813D02*
Y-00291813D01*
X00039474Y-00309813D02*
Y-00291813D01*
X00048474*
X00039474Y-00309813D02*
X00048474D01*
X00036664D02*
Y-00291813D01*
X00027664Y-00309813D02*
Y-00291813D01*
X00036664*
X00027664Y-00309813D02*
X00036664D01*
X00697638Y-00085059D02*
X00708638D01*
X00697638Y-00064059D02*
X00708638D01*
X00697638Y-00085059D02*
Y-00064059D01*
X00708638Y-00085059D02*
Y-00064059D01*
X00592308Y-00292379D02*
Y-00281379D01*
X00613308Y-00292379D02*
Y-00281379D01*
X00592308D02*
X00613308D01*
X00592308Y-00292379D02*
X00613308D01*
X00302158Y-00073689D02*
Y-00062689D01*
X00281158Y-00073689D02*
Y-00062689D01*
Y-00073689D02*
X00302158D01*
X00281158Y-00062689D02*
X00302158D01*
X00303613Y-00206341D02*
Y-00195341D01*
X00282613Y-00206341D02*
Y-00195341D01*
Y-00206341D02*
X00303613D01*
X00282613Y-00195341D02*
X00303613D01*
X00303546Y-00195138D02*
Y-00184138D01*
X00282546Y-00195138D02*
Y-00184138D01*
Y-00195138D02*
X00303546D01*
X00282546Y-00184138D02*
X00303546D01*
X00303613Y-00184179D02*
Y-00173179D01*
X00282613Y-00184179D02*
Y-00173179D01*
Y-00184179D02*
X00303613D01*
X00282613Y-00173179D02*
X00303613D01*
Y-00173204D02*
Y-00162204D01*
X00282613Y-00173204D02*
Y-00162204D01*
Y-00173204D02*
X00303613D01*
X00282613Y-00162204D02*
X00303613D01*
X00303428Y-00162322D02*
Y-00151322D01*
X00282428Y-00162322D02*
Y-00151322D01*
Y-00162322D02*
X00303428D01*
X00282428Y-00151322D02*
X00303428D01*
Y-00151075D02*
Y-00140075D01*
X00282428Y-00151075D02*
Y-00140075D01*
Y-00151075D02*
X00303428D01*
X00282428Y-00140075D02*
X00303428D01*
X00304013Y-00140432D02*
Y-00129432D01*
X00283013Y-00140432D02*
Y-00129432D01*
Y-00140432D02*
X00304013D01*
X00283013Y-00129432D02*
X00304013D01*
X-00001636Y-00139862D02*
Y-00128862D01*
X00019362Y-00139862D02*
Y-00128862D01*
X-00001636D02*
X00019362D01*
X-00001636Y-00139862D02*
X00019362D01*
X-00001715Y-00151249D02*
Y-00140249D01*
X00019283Y-00151249D02*
Y-00140249D01*
X-00001715D02*
X00019283D01*
X-00001715Y-00151249D02*
X00019283D01*
X-0002332Y-00132167D02*
X-0000932D01*
X-0002332Y-00103167D02*
X-0000932D01*
X-0002332Y-00132167D02*
Y-00103167D01*
X-0000932Y-00132167D02*
Y-00103167D01*
X-00039669Y-00132168D02*
X-00025669D01*
X-00039669Y-00103168D02*
X-00025669D01*
X-00039669Y-00132168D02*
Y-00103168D01*
X-00025669Y-00132168D02*
Y-00103168D01*
X0002296Y-00196456D02*
X00033961D01*
X0002296Y-00217456D02*
X00033961D01*
Y-00196456*
X0002296Y-00217456D02*
Y-00196456D01*
Y-00150258D02*
X00033961D01*
X0002296Y-00171258D02*
X00033961D01*
Y-00150258*
X0002296Y-00171258D02*
Y-00150258D01*
X-0000055Y-00117959D02*
X00017448D01*
X-0000055Y-00126959D02*
X00017448D01*
X-0000055D02*
Y-00117959D01*
X00017448Y-00126959D02*
Y-00117959D01*
X-00000596Y-00113602D02*
X00017402D01*
X-00000596Y-00104602D02*
X00017402D01*
Y-00113602D02*
Y-00104602D01*
X-00000596Y-00113602D02*
Y-00104602D01*
X-0000055Y-00080889D02*
X00017448D01*
X-0000055Y-00089889D02*
X00017448D01*
X-0000055D02*
Y-00080889D01*
X00017448Y-00089889D02*
Y-00080889D01*
X-0000055Y-00092559D02*
X00017448D01*
X-0000055Y-00101559D02*
X00017448D01*
X-0000055D02*
Y-00092559D01*
X00017448Y-00101559D02*
Y-00092559D01*
X00162698Y03320059D02*
Y03338059D01*
X00171698Y03320059D02*
Y03338059D01*
X00162698Y03320059D02*
X00171698D01*
X00162698Y03338059D02*
X00171698D01*
X00358698Y03337643D02*
X00483698D01*
X00358698Y03487643D02*
X00483698D01*
X00358698Y03337643D02*
Y03487643D01*
X00483698Y03337643D02*
Y03487643D01*
X00053898Y03342723D02*
X00178898D01*
X00053898Y03492723D02*
X00178898D01*
X00053898Y03342723D02*
Y03492723D01*
X00178898Y03342723D02*
Y03492723D01*
X00177938Y03320059D02*
Y03338059D01*
X00186938Y03320059D02*
Y03338059D01*
X00177938Y03320059D02*
X00186938D01*
X00177938Y03338059D02*
X00186938D01*
X00202178Y03320059D02*
Y03338059D01*
X00193178Y03320059D02*
Y03338059D01*
X00202178*
X00193178Y03320059D02*
X00202178D01*
X0022127Y-00292654D02*
Y-00281654D01*
X0024227Y-00292654D02*
Y-00281654D01*
X0022127D02*
X0024227D01*
X0022127Y-00292654D02*
X0024227D01*
X00826378Y03380139D02*
X00864378D01*
X00826378Y03415139D02*
X00864378D01*
Y03380139D02*
Y03415139D01*
X00826378Y03380139D02*
Y03415139D01*
X00959121Y03325818D02*
X01012621D01*
X00959121D02*
Y03396318D01*
X01012621*
Y03325818D02*
Y03396318D01*
X00925378Y03383818D02*
Y03394818D01*
X00946378Y03383818D02*
Y03394818D01*
X00925378D02*
X00946378D01*
X00925378Y03383818D02*
X00946378D01*
M02*