%FSTAX44Y44*%
%MOMM*%
%SFA1B1*%

%IPPOS*%
%ADD13C,0.100000*%
%LNpcb1-1*%
%LPD*%
G54D13*
X00091776Y-00301313D02*
D01*
X00091764Y-00300965*
X00091728Y-00300617*
X00091667Y-00300274*
X00091583Y-00299935*
X00091475Y-00299603*
X00091344Y-0029928*
X00091191Y-00298966*
X00091017Y-00298664*
X00090822Y-00298375*
X00090607Y-00298099*
X00090373Y-0029784*
X00090122Y-00297598*
X00089855Y-00297373*
X00089572Y-00297168*
X00089276Y-00296983*
X00088968Y-00296819*
X00088649Y-00296677*
X00088321Y-00296558*
X00087986Y-00296462*
X00087645Y-00296389*
X00087299Y-00296341*
X00086951Y-00296316*
X00086602*
X00086254Y-00296341*
X00085908Y-00296389*
X00085567Y-00296462*
X00085231Y-00296558*
X00084903Y-00296677*
X00084585Y-00296819*
X00084276Y-00296983*
X0008398Y-00297168*
X00083698Y-00297373*
X00083431Y-00297598*
X0008318Y-0029784*
X00082946Y-00298099*
X00082731Y-00298375*
X00082536Y-00298664*
X00082362Y-00298966*
X00082209Y-0029928*
X00082078Y-00299603*
X0008197Y-00299935*
X00081886Y-00300274*
X00081825Y-00300617*
X00081789Y-00300965*
X00081776Y-00301313*
X00081789Y-00301662*
X00081825Y-00302009*
X00081886Y-00302353*
X0008197Y-00302692*
X00082078Y-00303024*
X00082209Y-00303347*
X00082362Y-00303661*
X00082536Y-00303963*
X00082731Y-00304252*
X00082946Y-00304527*
X0008318Y-00304787*
X00083431Y-00305029*
X00083698Y-00305253*
X0008398Y-00305459*
X00084276Y-00305644*
X00084585Y-00305807*
X00084903Y-00305949*
X00085231Y-00306069*
X00085567Y-00306165*
X00085908Y-00306237*
X00086254Y-00306286*
X00086602Y-0030631*
X00086951*
X00087299Y-00306286*
X00087645Y-00306237*
X00087986Y-00306165*
X00088321Y-00306069*
X00088649Y-00305949*
X00088968Y-00305807*
X00089276Y-00305644*
X00089572Y-00305459*
X00089855Y-00305253*
X00090122Y-00305029*
X00090373Y-00304787*
X00090607Y-00304527*
X00090822Y-00304252*
X00091017Y-00303963*
X00091191Y-00303661*
X00091344Y-00303347*
X00091475Y-00303024*
X00091583Y-00302692*
X00091667Y-00302353*
X00091728Y-00302009*
X00091764Y-00301662*
X00091776Y-00301313*
X00315888Y03488883D02*
Y03493883D01*
X00305888Y03488883D02*
Y03493883D01*
Y03488883D02*
X00315888D01*
X00305888Y03493883D02*
X00315888D01*
Y03468563D02*
Y03473563D01*
X00305888Y03468563D02*
Y03473563D01*
Y03468563D02*
X00315888D01*
X00305888Y03473563D02*
X00315888D01*
X00187558Y03431613D02*
X00192558D01*
X00187558Y03421613D02*
X00192558D01*
Y03431613*
X00187558Y03421613D02*
Y03431613D01*
X00202798D02*
X00207798D01*
X00202798Y03421613D02*
X00207798D01*
Y03431613*
X00202798Y03421613D02*
Y03431613D01*
X00141804Y-00292154D02*
Y-00282154D01*
X00146804Y-00292154D02*
Y-00282154D01*
X00141804Y-00292154D02*
X00146804D01*
X00141804Y-00282154D02*
X00146804D01*
X00116154Y-00292404D02*
X00121654D01*
X00116154Y-00281904D02*
X00121654D01*
X00116154Y-00292404D02*
Y-00281904D01*
X00121654Y-00292404D02*
Y-00281904D01*
X00129104Y-00292154D02*
X00134104D01*
X00129104Y-00282154D02*
X00134104D01*
X00129104Y-00292154D02*
Y-00282154D01*
X00134104Y-00292154D02*
Y-00282154D01*
X00095776Y-00310313D02*
Y-00280313D01*
X00065776Y-00310313D02*
Y-00280313D01*
Y-00310313D02*
X00095776D01*
X00065776Y-00280313D02*
X00095776D01*
X00041474Y-00305813D02*
X00046474D01*
X00041474Y-00295813D02*
X00046474D01*
X00041474Y-00305813D02*
Y-00295813D01*
X00046474Y-00305813D02*
Y-00295813D01*
X00029664Y-00305813D02*
X00034664D01*
X00029664Y-00295813D02*
X00034664D01*
X00029664Y-00305813D02*
Y-00295813D01*
X00034664Y-00305813D02*
Y-00295813D01*
X00700388Y-00079809D02*
X00705888D01*
X00700388Y-00069309D02*
X00705888D01*
X00700388Y-00079809D02*
Y-00069309D01*
X00705888Y-00079809D02*
Y-00069309D01*
X00597558Y-00289629D02*
Y-00284129D01*
X00608058Y-00289629D02*
Y-00284129D01*
X00597558D02*
X00608058D01*
X00597558Y-00289629D02*
X00608058D01*
X00296908Y-00070939D02*
Y-00065439D01*
X00286408Y-00070939D02*
Y-00065439D01*
Y-00070939D02*
X00296908D01*
X00286408Y-00065439D02*
X00296908D01*
X00298363Y-00203591D02*
Y-00198091D01*
X00287863Y-00203591D02*
Y-00198091D01*
Y-00203591D02*
X00298363D01*
X00287863Y-00198091D02*
X00298363D01*
X00298296Y-00192388D02*
Y-00186888D01*
X00287796Y-00192388D02*
Y-00186888D01*
Y-00192388D02*
X00298296D01*
X00287796Y-00186888D02*
X00298296D01*
X00298363Y-00181429D02*
Y-00175929D01*
X00287863Y-00181429D02*
Y-00175929D01*
Y-00181429D02*
X00298363D01*
X00287863Y-00175929D02*
X00298363D01*
Y-00170454D02*
Y-00164954D01*
X00287863Y-00170454D02*
Y-00164954D01*
Y-00170454D02*
X00298363D01*
X00287863Y-00164954D02*
X00298363D01*
X00298178Y-00159572D02*
Y-00154072D01*
X00287678Y-00159572D02*
Y-00154072D01*
Y-00159572D02*
X00298178D01*
X00287678Y-00154072D02*
X00298178D01*
Y-00148325D02*
Y-00142825D01*
X00287678Y-00148325D02*
Y-00142825D01*
Y-00148325D02*
X00298178D01*
X00287678Y-00142825D02*
X00298178D01*
X00298763Y-00137682D02*
Y-00132182D01*
X00288263Y-00137682D02*
Y-00132182D01*
Y-00137682D02*
X00298763D01*
X00288263Y-00132182D02*
X00298763D01*
X00003612Y-00137112D02*
Y-00131612D01*
X00014112Y-00137112D02*
Y-00131612D01*
X00003612D02*
X00014112D01*
X00003612Y-00137112D02*
X00014112D01*
X00003533Y-00148499D02*
Y-00142999D01*
X00014033Y-00148499D02*
Y-00142999D01*
X00003533D02*
X00014033D01*
X00003533Y-00148499D02*
X00014033D01*
X-0001232Y-00125667D02*
Y-00109667D01*
X-0002032Y-00125667D02*
Y-00109667D01*
X-0001232*
X-0002032Y-00125667D02*
X-0001232D01*
X-00028669Y-00125668D02*
Y-00109668D01*
X-00036669Y-00125668D02*
Y-00109668D01*
X-00028669*
X-00036669Y-00125668D02*
X-00028669D01*
X00025711Y-00201706D02*
X00031211D01*
X00025711Y-00212206D02*
X00031211D01*
Y-00201706*
X00025711Y-00212206D02*
Y-00201706D01*
Y-00155508D02*
X00031211D01*
X00025711Y-00166008D02*
X00031211D01*
Y-00155508*
X00025711Y-00166008D02*
Y-00155508D01*
X00013448Y-00124959D02*
Y-00119959D01*
X00003448Y-00124959D02*
Y-00119959D01*
Y-00124959D02*
X00013448D01*
X00003448Y-00119959D02*
X00013448D01*
X00003402Y-00111602D02*
Y-00106602D01*
X00013402Y-00111602D02*
Y-00106602D01*
X00003402D02*
X00013402D01*
X00003402Y-00111602D02*
X00013402D01*
X00013448Y-00087889D02*
Y-00082889D01*
X00003448Y-00087889D02*
Y-00082889D01*
Y-00087889D02*
X00013448D01*
X00003448Y-00082889D02*
X00013448D01*
Y-00099559D02*
Y-00094559D01*
X00003448Y-00099559D02*
Y-00094559D01*
Y-00099559D02*
X00013448D01*
X00003448Y-00094559D02*
X00013448D01*
X00164698Y03334059D02*
X00169698D01*
X00164698Y03324059D02*
X00169698D01*
Y03334059*
X00164698Y03324059D02*
Y03334059D01*
X00368698Y03379643D02*
X00388198Y03360143D01*
X00368698Y03379643D02*
Y03465143D01*
X00473698*
Y03379643D02*
Y03465143D01*
X00454198Y03360143D02*
X00473698Y03379643D01*
X00388198Y03360143D02*
X00454198D01*
X00063898Y03384723D02*
X00083398Y03365223D01*
X00063898Y03384723D02*
Y03470223D01*
X00168898*
Y03384723D02*
Y03470223D01*
X00149398Y03365223D02*
X00168898Y03384723D01*
X00083398Y03365223D02*
X00149398D01*
X00179938Y03334059D02*
X00184938D01*
X00179938Y03324059D02*
X00184938D01*
Y03334059*
X00179938Y03324059D02*
Y03334059D01*
X00195178Y03324059D02*
X00200178D01*
X00195178Y03334059D02*
X00200178D01*
X00195178Y03324059D02*
Y03334059D01*
X00200178Y03324059D02*
Y03334059D01*
X0022652Y-00289904D02*
Y-00284404D01*
X0023702Y-00289904D02*
Y-00284404D01*
X0022652D02*
X0023702D01*
X0022652Y-00289904D02*
X0023702D01*
X00838378Y03382639D02*
X00852378D01*
X00838378Y03412639D02*
X00852378D01*
Y03382639D02*
Y03412639D01*
X00838378Y03382639D02*
Y03412639D01*
X00960121Y03330318D02*
X01011621D01*
X00960121D02*
Y03391818D01*
X01011621*
Y03330318D02*
Y03391818D01*
X00930628Y03386568D02*
Y03392068D01*
X00941128Y03386568D02*
Y03392068D01*
X00930628D02*
X00941128D01*
X00930628Y03386568D02*
X00941128D01*
M02*